<svg width="1920" height="420" viewBox="0 0 1920 420" fill="none" xmlns="http://www.w3.org/2000/svg">
<g opacity="0.4">
<path fill-rule="evenodd" clip-rule="evenodd" d="M0 59.9956C140 105.6 320.962 118.422 480 105.6C640 92.7002 800 66.9005 960 73.3504C1120 79.8004 1280 118.5 1440 131.4C1600 144.299 1760 131.4 1840 124.95L1920 118.5V191.99H0V59.9956Z" fill="#C2D7F2" style="mix-blend-mode:multiply"/>
<path fill-rule="evenodd" clip-rule="evenodd" d="M0 59.9956C140 105.6 320.962 118.422 480 105.6C640 92.7002 800 66.9005 960 73.3504C1120 79.8004 1280 118.5 1440 131.4C1600 144.299 1760 131.4 1840 124.95L1920 118.5V191.99H0V59.9956Z" stroke="black"/>
</g>
<g opacity="0.4">
<path fill-rule="evenodd" clip-rule="evenodd" d="M0 0L80 29.6284C160 59.2567 320 118.513 480 133.328C640 148.142 800 118.513 960 118.513C1120 118.513 1280 148.142 1440 153.08C1600 158.018 1760 138.266 1840 128.39L1920 118.513V192H0V0Z" fill="#C2D7F2" style="mix-blend-mode:multiply"/>
<path fill-rule="evenodd" clip-rule="evenodd" d="M0 0L80 29.6284C160 59.2567 320 118.513 480 133.328C640 148.142 800 118.513 960 118.513C1120 118.513 1280 148.142 1440 153.08C1600 158.018 1760 138.266 1840 128.39L1920 118.513V192H0V0Z" stroke="black"/>
</g>
<g opacity="0.4">
<path fill-rule="evenodd" clip-rule="evenodd" d="M1920 379.27C1787.5 332.885 1599.61 279.307 1440 294.588C1280 309.907 1120 340.544 960 332.885C800 325.225 640 279.27 480 263.951C320 248.633 160 263.951 80 271.611L0 279.27V192H1920V379.27Z" fill="#C2D7F2" style="mix-blend-mode:multiply"/>
<path fill-rule="evenodd" clip-rule="evenodd" d="M1920 379.27C1787.5 332.885 1599.61 279.307 1440 294.588C1280 309.907 1120 340.544 960 332.885C800 325.225 640 279.27 480 263.951C320 248.633 160 263.951 80 271.611L0 279.27V192H1920V379.27Z" stroke="black"/>
</g>
<g opacity="0.4">
<path fill-rule="evenodd" clip-rule="evenodd" d="M1920 420L1840 384.816C1760 349.633 1600 279.265 1440 261.673C1280 244.082 1120 279.265 960 279.265C800 279.265 640 244.082 480 238.218C320 232.354 160 255.81 80 267.537L-2.86102e-05 279.265V192H1920V420Z" fill="#C2D7F2" style="mix-blend-mode:multiply"/>
<path fill-rule="evenodd" clip-rule="evenodd" d="M1920 420L1840 384.816C1760 349.633 1600 279.265 1440 261.673C1280 244.082 1120 279.265 960 279.265C800 279.265 640 244.082 480 238.218C320 232.354 160 255.81 80 267.537L-2.86102e-05 279.265V192H1920V420Z" stroke="black"/>
</g>
</svg>
