<svg width="380" height="177" viewBox="0 0 380 177" fill="none" xmlns="http://www.w3.org/2000/svg">
<g clip-path="url(#clip0_706_1630)">
<mask id="mask0_706_1630" style="mask-type:alpha" maskUnits="userSpaceOnUse" x="-1" y="0" width="382" height="480">
<path d="M0 60C0 43.4315 13.4315 30 30 30C46.5685 30 60 16.5685 60 0M140 0C140 16.5685 126.569 30 110 30C93.4315 30 80 43.4315 80 60C80 76.5685 66.5685 90 50 90C33.4315 90 20 103.431 20 120C20 133.062 11.6519 144.175 0 148.293M220 0C220 16.5685 206.569 30 190 30C173.431 30 160 43.4315 160 60C160 76.5685 146.569 90 130 90C113.431 90 100 103.431 100 120C100 136.569 86.5685 150 70 150C53.4315 150 40 163.431 40 180C40 196.569 26.5685 210 10 210C6.49365 210 3.12779 210.602 0 211.707M300 0C300 16.5685 286.569 30 270 30C253.431 30 240 43.4315 240 60C240 76.5685 226.569 90 210 90C193.431 90 180 103.431 180 120C180 136.569 166.569 150 150 150C133.431 150 120 163.431 120 180C120 196.569 106.569 210 90 210C73.4315 210 60 223.431 60 240C60 256.569 46.5685 270 30 270C13.4315 270 0 283.431 0 300M380 0C380 16.5685 366.569 30 350 30C333.431 30 320 43.4315 320 60C320 76.5685 306.569 90 290 90C273.431 90 260 103.431 260 120C260 136.569 246.569 150 230 150C213.431 150 200 163.431 200 180C200 196.569 186.569 210 170 210C153.431 210 140 223.431 140 240C140 256.569 126.569 270 110 270C93.4315 270 80 283.431 80 300C80 316.569 66.5685 330 50 330C33.4315 330 20 343.431 20 360C20 373.062 11.6519 384.175 0 388.293M380 240C380 256.569 366.569 270 350 270C333.431 270 320 283.431 320 300C320 316.569 306.569 330 290 330C273.431 330 260 343.431 260 360C260 376.569 246.569 390 230 390C213.431 390 200 403.431 200 420C200 436.569 186.569 450 170 450C153.431 450 140 463.431 140 480M60 480C60 463.431 73.4315 450 90 450C106.569 450 120 436.569 120 420C120 403.431 133.431 390 150 390C166.569 390 180 376.569 180 360C180 343.431 193.431 330 210 330C226.569 330 240 316.569 240 300C240 283.431 253.431 270 270 270C286.569 270 300 256.569 300 240C300 223.431 313.431 210 330 210C346.569 210 360 196.569 360 180C360 166.938 368.348 155.825 380 151.707M220 480C220 463.431 233.431 450 250 450C266.569 450 280 436.569 280 420C280 403.431 293.431 390 310 390C326.569 390 340 376.569 340 360C340 343.431 353.431 330 370 330C373.506 330 376.872 329.398 380 328.293M300 480C300 463.431 313.431 450 330 450C346.569 450 360 436.569 360 420C360 406.938 368.348 395.825 380 391.707M0 451.707C3.12779 450.602 6.49365 450 10 450C26.5685 450 40 436.569 40 420C40 403.431 53.4315 390 70 390C86.5685 390 100 376.569 100 360C100 343.431 113.431 330 130 330C146.569 330 160 316.569 160 300C160 283.431 173.431 270 190 270C206.569 270 220 256.569 220 240C220 223.431 233.431 210 250 210C266.569 210 280 196.569 280 180C280 163.431 293.431 150 310 150C326.569 150 340 136.569 340 120C340 103.431 353.431 90 370 90C373.506 90 376.872 89.3985 380 88.2929" stroke="#E21313" stroke-miterlimit="10"/>
</mask>
<g mask="url(#mask0_706_1630)">
</g>
<g opacity="0.2" clip-path="url(#clip1_706_1630)">
<path d="M124.5 103.514C83 103.514 41.5 109.575 0 114.844V177H380V137C293.5 129.848 211 103.514 124.5 103.514Z" fill="#C2D7F2" style="mix-blend-mode:multiply"/>
<path d="M124.5 58.5002C82.55 55.5511 41.9499 59.1153 0 65.3018V176.802L380 177V113.398C294.833 98.2636 209.667 64.4875 124.5 58.5002Z" fill="#C2D7F2" style="mix-blend-mode:multiply"/>
</g>
</g>
<defs>
<clipPath id="clip0_706_1630">
<rect width="380" height="177" rx="12" fill="white"/>
</clipPath>
<clipPath id="clip1_706_1630">
<rect width="380" height="120" fill="white" transform="translate(0 57)"/>
</clipPath>
</defs>
</svg>
