<svg width="80" height="80" viewBox="0 0 80 80" fill="none" xmlns="http://www.w3.org/2000/svg">
<path d="M34.4824 36.6601C34.4824 37.767 35.3267 38.664 36.3684 38.664H53.133C54.1747 38.664 55.019 37.767 55.019 36.6601C55.019 35.5533 54.1747 34.6562 53.133 34.6562H36.3684C35.3267 34.6562 34.4824 35.5533 34.4824 36.6601Z" fill="#E69238"/>
<path d="M53.133 45.5625H36.3684C35.3267 45.5625 34.4824 46.4596 34.4824 47.5664C34.4824 48.6732 35.3267 49.5703 36.3684 49.5703H53.133C54.1747 49.5703 55.019 48.6732 55.019 47.5664C55.019 46.4596 54.1747 45.5625 53.133 45.5625Z" fill="#E69238"/>
<path d="M53.133 56.4688H36.3684C35.3267 56.4688 34.4824 57.3658 34.4824 58.4726C34.4824 59.5795 35.3267 60.4765 36.3684 60.4765H53.133C54.1747 60.4765 55.019 59.5795 55.019 58.4726C55.019 57.3658 54.1747 56.4688 53.133 56.4688Z" fill="#E69238"/>
<path d="M29.8723 38.7525C30.9598 38.7525 31.8413 37.8158 31.8413 36.6604C31.8413 35.505 30.9598 34.5684 29.8723 34.5684C28.7849 34.5684 27.9033 35.505 27.9033 36.6604C27.9033 37.8158 28.7849 38.7525 29.8723 38.7525Z" fill="#F3952B"/>
<path d="M29.8723 49.6582C30.9598 49.6582 31.8413 48.7216 31.8413 47.5662C31.8413 46.4108 30.9598 45.4741 29.8723 45.4741C28.7849 45.4741 27.9033 46.4108 27.9033 47.5662C27.9033 48.7216 28.7849 49.6582 29.8723 49.6582Z" fill="#F3952B"/>
<path d="M29.8723 60.565C30.9598 60.565 31.8413 59.6283 31.8413 58.4729C31.8413 57.3175 30.9598 56.3809 29.8723 56.3809C28.7849 56.3809 27.9033 57.3175 27.9033 58.4729C27.9033 59.6283 28.7849 60.565 29.8723 60.565Z" fill="#F3952B"/>
<path d="M64.484 21.7223L50.2391 6.58692C49.8852 6.21108 49.4055 6 48.9055 6H17.886C16.8443 6 16 6.89707 16 8.00389V71.9961C16 73.1029 16.8443 74 17.886 74H63.1503C64.1921 74 65.0364 73.1029 65.0364 71.9961V23.1393C65.0364 22.6078 64.8377 22.0981 64.484 21.7223ZM50.3724 12.3964L59.0164 21.5807H50.3724V12.3964ZM61.2643 69.9922H19.772V10.0078H46.6002V23.5846C46.6002 24.6914 47.4445 25.5885 48.4862 25.5885H61.2643V69.9922Z" fill="#F3952B"/>
</svg>
