<svg width="80" height="80" viewBox="0 0 80 80" fill="none" xmlns="http://www.w3.org/2000/svg">
<path d="M18.1875 16H27.4375V22.9375C27.4375 23.5508 27.1939 24.139 26.7602 24.5727C26.3265 25.0064 25.7383 25.25 25.125 25.25H20.5C19.8867 25.25 19.2985 25.0064 18.8648 24.5727C18.4311 24.139 18.1875 23.5508 18.1875 22.9375V16Z" fill="#356DB8"/>
<path d="M50.4375 16H59.6875V22.9375C59.6875 23.5508 59.4439 24.139 59.0102 24.5727C58.5765 25.0064 57.9883 25.25 57.375 25.25H52.75C52.1367 25.25 51.5485 25.0064 51.1148 24.5727C50.6811 24.139 50.4375 23.5508 50.4375 22.9375V16Z" fill="#356DB8"/>
<path d="M73.6875 44.375H73.2712C73.5405 43.6334 73.6812 42.8514 73.6875 42.0625V18.9375C73.6875 17.0976 72.9566 15.333 71.6556 14.0319C70.3545 12.7309 68.5899 12 66.75 12H43.625C41.9136 12.0102 40.2664 12.6526 39 13.8038C37.7336 12.6526 36.0864 12.0102 34.375 12H11.25C9.41006 12 7.64548 12.7309 6.34445 14.0319C5.04341 15.333 4.3125 17.0976 4.3125 18.9375V42.0625C4.31875 42.8514 4.45952 43.6334 4.72875 44.375H4.3125C3.69919 44.375 3.11099 44.6186 2.67732 45.0523C2.24364 45.486 2 46.0742 2 46.6875L2 55.9375C2 56.5508 2.24364 57.139 2.67732 57.5727C3.11099 58.0064 3.69919 58.25 4.3125 58.25H6.625V65.1875C6.625 65.8008 6.86864 66.389 7.30232 66.8227C7.73599 67.2564 8.32419 67.5 8.9375 67.5H18.1875C18.8008 67.5 19.389 67.2564 19.8227 66.8227C20.2564 66.389 20.5 65.8008 20.5 65.1875V58.25H32.0625V65.1875C32.0625 65.8008 32.3061 66.389 32.7398 66.8227C33.1735 67.2564 33.7617 67.5 34.375 67.5H43.625C44.2383 67.5 44.8265 67.2564 45.2602 66.8227C45.6939 66.389 45.9375 65.8008 45.9375 65.1875V58.25H57.5V65.1875C57.5 65.8008 57.7436 66.389 58.1773 66.8227C58.611 67.2564 59.1992 67.5 59.8125 67.5H69.0625C69.6758 67.5 70.264 67.2564 70.6977 66.8227C71.1314 66.389 71.375 65.8008 71.375 65.1875V58.25H73.6875C74.3008 58.25 74.889 58.0064 75.3227 57.5727C75.7564 57.139 76 56.5508 76 55.9375V46.6875C76 46.0742 75.7564 45.486 75.3227 45.0523C74.889 44.6186 74.3008 44.375 73.6875 44.375ZM43.625 16.625H66.75C67.3633 16.625 67.9515 16.8686 68.3852 17.3023C68.8189 17.736 69.0625 18.3242 69.0625 18.9375V42.0625C69.0625 42.6758 68.8189 43.264 68.3852 43.6977C67.9515 44.1314 67.3633 44.375 66.75 44.375H43.625C43.0117 44.375 42.4235 44.1314 41.9898 43.6977C41.5561 43.264 41.3125 42.6758 41.3125 42.0625V18.9375C41.3125 18.3242 41.5561 17.736 41.9898 17.3023C42.4235 16.8686 43.0117 16.625 43.625 16.625ZM8.9375 42.0625V18.9375C8.9375 18.3242 9.18114 17.736 9.61482 17.3023C10.0485 16.8686 10.6367 16.625 11.25 16.625H34.375C34.9883 16.625 35.5765 16.8686 36.0102 17.3023C36.4439 17.736 36.6875 18.3242 36.6875 18.9375V42.0625C36.6875 42.6758 36.4439 43.264 36.0102 43.6977C35.5765 44.1314 34.9883 44.375 34.375 44.375H11.25C10.6367 44.375 10.0485 44.1314 9.61482 43.6977C9.18114 43.264 8.9375 42.6758 8.9375 42.0625ZM15.875 62.875H11.25V58.25H15.875V62.875ZM41.3125 62.875H36.6875V58.25H41.3125V62.875ZM66.75 62.875H62.125V58.25H66.75V62.875ZM71.375 53.625H6.625V49H71.375V53.625Z" fill="#356DB8"/>
<path d="M20.5 39.75H15.875C15.2617 39.75 14.6735 39.5064 14.2398 39.0727C13.8061 38.639 13.5625 38.0508 13.5625 37.4375C13.5625 36.8242 13.8061 36.236 14.2398 35.8023C14.6735 35.3686 15.2617 35.125 15.875 35.125H20.5C21.1133 35.125 21.7015 35.3686 22.1352 35.8023C22.5689 36.236 22.8125 36.8242 22.8125 37.4375C22.8125 38.0508 22.5689 38.639 22.1352 39.0727C21.7015 39.5064 21.1133 39.75 20.5 39.75Z" fill="#356DB8"/>
<path d="M52.875 39.75H48.25C47.6367 39.75 47.0485 39.5064 46.6148 39.0727C46.1811 38.639 45.9375 38.0508 45.9375 37.4375C45.9375 36.8242 46.1811 36.236 46.6148 35.8023C47.0485 35.3686 47.6367 35.125 48.25 35.125H52.875C53.4883 35.125 54.0765 35.3686 54.5102 35.8023C54.9439 36.236 55.1875 36.8242 55.1875 37.4375C55.1875 38.0508 54.9439 38.639 54.5102 39.0727C54.0765 39.5064 53.4883 39.75 52.875 39.75Z" fill="#356DB8"/>
</svg>
