<svg width="80" height="80" viewBox="0 0 80 80" fill="none" xmlns="http://www.w3.org/2000/svg">
<path d="M40.3984 54.6599C38.9682 54.5482 37.3191 54.2544 36.0185 53.8131C35.7748 53.7304 34.7661 53.2959 34.5095 53.158C29.9813 50.7004 26.8267 45.3355 26.8267 39.1115C26.8267 30.5746 32.7545 23.621 40.0452 23.621C47.2713 23.621 53.159 30.456 53.2602 38.8964H58.0356C57.9343 27.3723 49.9055 18.0328 40.0452 18.0328C30.1261 18.0328 22.0526 27.4868 22.0526 39.1115C22.0526 47.1257 25.8992 54.0958 31.5315 57.6568C32.5485 58.287 34.008 58.9366 34.5036 59.1145C36.1091 59.6744 38.0795 60.0468 39.8334 60.2027C40.429 60.2551 42.5088 60.2826 43.115 60.2854H76V54.7123H43.1704C42.7337 54.7123 40.8256 54.693 40.3984 54.6599ZM43.1704 45.9093C42.8231 45.9093 41.0069 45.8955 40.6714 45.8624C40.1029 45.8058 39.279 45.7065 38.7493 45.5645C38.1513 45.3769 37.5899 45.1287 37.3368 44.9659C35.563 43.8419 34.3541 41.6436 34.3541 39.1115C34.3541 35.4278 36.9001 32.4406 40.0452 32.4406C43.1245 32.4406 45.6281 35.3106 45.7281 38.8964H50.3163C50.2198 32.3455 45.6622 27.0661 40.0452 27.0661C34.3659 27.0661 29.7624 32.4585 29.7624 39.1115C29.7624 43.8033 32.0576 47.8552 35.4005 49.8398C35.9149 50.1929 36.8825 50.5625 37.1579 50.6466C38.1019 50.9376 39.3696 51.1362 40.3984 51.2245C40.7785 51.2617 42.6407 51.2783 43.0338 51.281V51.2893H75.9988V45.9093H43.1704ZM19.1099 60.2647H14.3027V23.6334H7.27798V17.9997H19.1099V60.2647ZM2 26.4483V31.8655H7.27798V60.2647H11.8968V26.4483H2Z" fill="#356DB8"/>
<path d="M67.5059 18.3928C65.7744 18.3928 64.3384 20.0106 64.3384 22.0407C64.3384 24.0707 65.7744 25.7533 67.5059 25.7533C69.2903 25.7533 70.671 24.0707 70.671 22.0407C70.671 20.0106 69.2903 18.3928 67.5059 18.3928ZM67.5059 25.1548C66.0757 25.1548 64.8433 23.8377 64.8433 22.0407C64.8433 20.3347 66.0757 18.9845 67.5059 18.9845C68.9348 18.9845 70.1613 20.3347 70.1613 22.0407C70.1613 23.8377 68.9348 25.1548 67.5059 25.1548Z" fill="#356DB8"/>
<path d="M68.7117 23.0403C68.7117 22.6307 68.6599 22.2501 68.2597 22.0997C68.7611 21.8956 68.8105 21.5108 68.8105 21.2778C68.8105 20.3358 68.0808 20.2158 67.7806 20.2158H66.3999V23.8636H66.9755V22.3673H67.4287C68.0808 22.3673 68.1349 22.719 68.1349 23.0403C68.1349 23.6623 68.1349 23.7795 68.2597 23.8636H68.8364C68.7117 23.7161 68.7611 23.6016 68.7117 23.0403ZM67.6547 21.8349H66.9755V20.6861H67.557C67.9595 20.6861 68.2326 20.8351 68.2326 21.2778C68.2326 21.5108 68.1349 21.8349 67.6547 21.8349Z" fill="#356DB8"/>
</svg>
