<svg width="80" height="80" viewBox="0 0 80 80" fill="none" xmlns="http://www.w3.org/2000/svg">
<path d="M45.0239 27.3322C50.0622 27.3322 54.1611 23.2333 54.1611 18.195C54.1611 13.1567 50.0622 9.05762 45.0239 9.05762C39.9856 9.05762 35.8867 13.1565 35.8867 18.195C35.8867 23.2333 39.9858 27.3322 45.0239 27.3322ZM45.0239 13.693C47.5062 13.693 49.5259 15.7125 49.5259 18.1951C49.5259 20.6774 47.5064 22.6972 45.0239 22.6972C42.5415 22.6972 40.5219 20.6776 40.5219 18.1951C40.5219 15.7125 42.5416 13.693 45.0239 13.693Z" fill="#E69238"/>
<path d="M21.1202 27.176C27.5098 27.176 32.7082 21.9776 32.7082 15.588C32.7082 9.19837 27.5098 4 21.1202 4C14.7306 4 9.53223 9.19837 9.53223 15.588C9.53223 21.9776 14.7306 27.176 21.1202 27.176ZM21.1202 8.6352C24.954 8.6352 28.073 11.7542 28.073 15.588C28.073 19.4218 24.954 22.5408 21.1202 22.5408C17.2864 22.5408 14.1674 19.4218 14.1674 15.588C14.1674 11.7542 17.2864 8.6352 21.1202 8.6352Z" fill="#E69238"/>
<path d="M57.3609 37.925C54.6708 33.742 50.0614 31.1948 45.0241 31.1948C40.5693 31.1948 36.4488 33.1864 33.6946 36.5398C30.3306 33.5969 25.9303 31.8108 21.1202 31.8108C10.5773 31.811 2 40.3881 2 50.9312V53.2488H36.546C36.1928 54.7344 36.0046 56.2833 36.0046 57.8755C36.0046 68.9023 44.9755 77.8733 56.0022 77.8733C67.0289 77.8733 76 68.9023 76 57.8755C76 47.3055 67.7565 38.626 57.3609 37.925ZM6.82045 48.6136C7.93321 41.7243 13.9219 36.4462 21.1202 36.4462C28.3185 36.4462 34.3073 41.7243 35.4199 48.6136H6.82045ZM36.8377 40.0569C38.7072 37.4199 41.7326 35.8302 45.0239 35.8302C47.5266 35.8302 49.8749 36.7501 51.679 38.35C46.7548 39.4394 42.5068 42.3483 39.6803 46.3338C39.1153 44.0535 38.1402 41.9336 36.8377 40.0569ZM56.0024 73.2381C47.5314 73.2381 40.6399 66.3465 40.6399 57.8755C40.6399 49.4047 47.5315 42.513 56.0024 42.513C64.4732 42.513 71.365 49.4047 71.365 57.8755C71.3648 66.3465 64.4732 73.2381 56.0024 73.2381Z" fill="#E69238"/>
<path d="M59.1401 53.1376L56.0024 47.6846L52.8649 53.1376L46.7095 54.4365L50.9256 59.1057L50.2591 65.3612L56.0026 62.7942L61.7461 65.3611L61.0795 59.1057L65.2957 54.4365L59.1401 53.1376Z" fill="#F3952B"/>
</svg>
