<svg width="80" height="80" viewBox="0 0 80 80" fill="none" xmlns="http://www.w3.org/2000/svg">
<path d="M23.0301 50.4503H67.0584C71.9911 50.4503 76 46.8933 76 42.5166V26.0772C76 25.0565 75.0588 24.2214 73.9084 24.2214C72.758 24.2214 71.8168 25.0565 71.8168 26.0772V42.5166C71.8168 44.8364 69.6903 46.7386 67.0584 46.7386H23.0301C20.4156 46.7386 18.2717 44.8519 18.2717 42.5166V32.8355V21.9944V20.5871V10.3801C18.2717 10.3182 18.2717 10.2409 18.2543 10.179C18.2543 10.1636 18.2543 10.1481 18.2543 10.1327C18.2543 10.0863 18.2369 10.0399 18.2369 10.0089C18.2369 9.978 18.2195 9.9316 18.202 9.90067C18.202 9.88521 18.1846 9.85428 18.1846 9.83881C18.1672 9.79242 18.1497 9.76149 18.1323 9.71509C18.1323 9.69963 18.1149 9.68416 18.1149 9.6687C18.0975 9.63777 18.08 9.59137 18.0626 9.56044C18.0452 9.54498 18.0452 9.52951 18.0277 9.49858C18.0103 9.46765 17.9929 9.43672 17.9754 9.40579C17.958 9.39032 17.9406 9.3594 17.9231 9.34393C17.9057 9.32846 17.8883 9.29753 17.8709 9.28207C17.8534 9.25114 17.8186 9.22021 17.8011 9.20474C17.7837 9.18928 17.7663 9.17381 17.7488 9.15835C17.714 9.12742 17.6966 9.09649 17.6617 9.06556C17.6443 9.05009 17.6268 9.03463 17.6094 9.03463C17.5745 9.0037 17.5397 8.97277 17.5048 8.9573C17.4874 8.94184 17.47 8.92637 17.4525 8.92637C17.4177 8.89544 17.3828 8.87998 17.348 8.86451C17.3131 8.83358 17.2608 8.81811 17.2259 8.80265C17.2085 8.78718 17.1911 8.78718 17.1737 8.77172C17.1039 8.74079 17.0342 8.70986 16.9819 8.67893L4.90292 4.14764C3.83969 3.74555 2.61958 4.19404 2.1664 5.13741C1.71322 6.08079 2.21869 7.16335 3.28193 7.56544L14.106 11.6173V20.6025V22.0099V32.8509V42.5321V54.7805C14.106 58.8633 17.6094 62.2347 22.0889 62.6677C21.2349 63.874 20.7294 65.3123 20.7294 66.8433C20.7294 71.1581 24.686 74.6841 29.5664 74.6841C34.4294 74.6841 38.4034 71.1735 38.4034 66.8433C38.4034 65.3277 37.9154 63.9204 37.0788 62.7141H57.4545C56.6178 63.9204 56.1298 65.3277 56.1298 66.8433C56.1298 71.1581 60.0864 74.6841 64.9668 74.6841C69.8298 74.6841 73.8038 71.1735 73.8038 66.8433C73.8038 62.5131 69.7949 58.987 64.9145 58.987H23.0301C20.4156 58.987 18.2717 57.1003 18.2717 54.765V49.2285C19.6487 50.0018 21.2871 50.4503 23.0301 50.4503ZM34.1854 66.8278C34.1854 69.1012 32.0938 70.957 29.5315 70.957C26.9693 70.957 24.8777 69.1012 24.8777 66.8278C24.8777 64.5545 26.9693 62.6986 29.5315 62.6986C32.0938 62.6986 34.1854 64.5545 34.1854 66.8278ZM69.5683 66.8278C69.5683 69.1012 67.4767 70.957 64.9145 70.957C62.3523 70.957 60.2607 69.1012 60.2607 66.8278C60.2607 64.5545 62.3523 62.6986 64.9145 62.6986C67.4767 62.6986 69.5683 64.5545 69.5683 66.8278Z" fill="#356DB8"/>
</svg>
