<svg width="23" height="23" viewBox="0 0 23 23" fill="none" xmlns="http://www.w3.org/2000/svg">
<g clip-path="url(#clip0_435_4163)">
<path d="M22.1902 13.3141C22.8763 7.53822 21.8605 3.89176 20.0282 2.24246L20.0291 2.24151C17.0717 -0.575038 7.08396 -0.991913 3.54579 2.36801C1.95687 4.01155 1.3972 6.42368 1.33587 9.40984C1.27454 12.397 1.2017 17.9927 6.416 19.5107H6.42079L6.416 21.8289C6.416 21.8289 6.38054 22.7681 6.98046 22.9569C7.66662 23.1792 7.97712 22.7431 10.1113 20.194C13.6802 20.5035 16.421 19.7943 16.7325 19.6909C17.4531 19.4494 21.5308 18.9098 22.1902 13.3141ZM10.463 18.5629C10.463 18.5629 8.20425 21.3794 7.50179 22.1106C7.27179 22.3483 7.01975 22.3263 7.02358 21.8548C7.02358 21.5452 7.04083 18.0061 7.04083 18.0061C2.62004 16.7392 2.8807 11.9743 2.92862 9.48172C2.97654 6.98813 3.4327 4.94592 4.77821 3.57071C7.88225 0.660255 16.6385 1.31096 18.8695 3.4078C21.597 5.82567 20.6262 12.6567 20.6319 12.8896C20.0713 17.5605 16.767 17.8566 16.1594 18.0588C15.8997 18.1451 13.4895 18.7651 10.463 18.5629Z" fill="#356DB8"/>
<path d="M11.7128 4.11816C11.3438 4.11816 11.3438 4.69316 11.7128 4.69796C14.5753 4.72 16.9328 6.71525 16.9587 10.3751C16.9587 10.7613 17.5241 10.7565 17.5193 10.3703H17.5183C17.4877 6.42679 14.9136 4.14021 11.7128 4.11816Z" fill="#356DB8"/>
<path d="M15.4781 9.76784C15.4694 10.1493 16.0339 10.1675 16.0387 9.78125C16.0857 7.6068 14.7449 5.81567 12.2255 5.62688C11.8565 5.60005 11.8182 6.17984 12.1862 6.20667C14.3712 6.37246 15.5222 7.86363 15.4781 9.76784Z" fill="#356DB8"/>
<path d="M14.8743 12.2418C14.4009 11.9677 13.9188 12.1383 13.7195 12.4076L13.3026 12.9471C13.0908 13.2212 12.6951 13.1848 12.6951 13.1848C9.80663 12.421 9.03421 9.39839 9.03421 9.39839C9.03421 9.39839 8.99876 8.98919 9.26326 8.76973L9.78459 8.33848C10.0453 8.13148 10.2101 7.63314 9.94463 7.14344C9.23546 5.86214 8.75917 5.42035 8.51671 5.0811C8.2618 4.76198 7.87846 4.6901 7.47979 4.90573H7.47117C6.64221 5.39064 5.73467 6.29818 6.02504 7.23256C6.5205 8.21773 7.43092 11.3582 10.3328 13.731C11.6965 14.8532 13.8546 16.0032 14.7708 16.2687L14.7794 16.2821C15.6822 16.583 16.56 15.64 17.0286 14.7861V14.7794C17.2366 14.3664 17.1676 13.9754 16.8638 13.7195C16.3252 13.1944 15.5126 12.6146 14.8743 12.2418Z" fill="#356DB8"/>
<path d="M12.6203 7.76595C13.5412 7.81962 13.9878 8.3007 14.0357 9.28875C14.053 9.67496 14.6136 9.64812 14.5964 9.26192C14.535 7.972 13.8623 7.25324 12.651 7.18616C12.282 7.16412 12.2475 7.74391 12.6203 7.76595Z" fill="#356DB8"/>
</g>
<defs>
<clipPath id="clip0_435_4163">
<rect width="23" height="23" fill="white"/>
</clipPath>
</defs>
</svg>
