<svg width="80" height="80" viewBox="0 0 80 80" fill="none" xmlns="http://www.w3.org/2000/svg">
<path d="M23.2511 11.8331C24.0909 10.8709 23.9916 9.41004 23.0294 8.57027C22.0672 7.73046 20.6063 7.82974 19.7666 8.79196L15.7835 13.3558C13.5241 15.9446 12.2469 19.2454 12.1753 22.6807L12.0005 31.0601C11.9739 32.337 12.9874 33.3937 14.2643 33.4203C15.5412 33.447 16.5979 32.4334 16.6245 31.1565L16.7993 22.7771C16.8483 20.4266 17.7222 18.1682 19.2681 16.397L23.2511 11.8331Z" fill="#E69238"/>
<path fill-rule="evenodd" clip-rule="evenodd" d="M22.6602 28.1373C23.0884 21.2901 28.7667 15.9559 35.6274 15.9559H37.3461V13.6434C37.3461 11.9405 38.7265 10.5601 40.4294 10.5601C42.1323 10.5601 43.5127 11.9405 43.5127 13.6434V15.9559H45.2314C52.0921 15.9559 57.7704 21.2901 58.1987 28.1373L58.8801 39.0322C59.1397 43.186 60.5343 47.1891 62.9118 50.6052C65.0597 53.6916 63.1474 57.9546 59.4138 58.4026L48.9086 59.6634V62.9767C48.9086 67.6597 45.1124 71.4559 40.4294 71.4559C35.7464 71.4559 31.9502 67.6597 31.9502 62.9767V59.6634L21.4449 58.4026C17.7112 57.9546 15.7988 53.6916 17.947 50.6052C20.3244 47.1891 21.7189 43.186 21.9787 39.0322L22.6602 28.1373ZM35.6274 20.5809C31.2089 20.5809 27.552 24.0163 27.2761 28.4261L26.5947 39.3208C26.2821 44.3195 24.604 49.1363 21.7431 53.247C21.5878 53.4702 21.7261 53.7782 21.9959 53.8106L33.5204 55.1935C38.1098 55.7442 42.7487 55.7442 47.3382 55.1935L58.8628 53.8106C59.1326 53.7782 59.2707 53.4702 59.1156 53.247C56.2546 49.1363 54.5767 44.3195 54.264 39.3208L53.5826 28.4261C53.3066 24.0163 49.6498 20.5809 45.2314 20.5809H35.6274ZM40.4294 66.8309C38.3007 66.8309 36.5752 65.1055 36.5752 62.9767V60.6642H44.2836V62.9767C44.2836 65.1055 42.5578 66.8309 40.4294 66.8309Z" fill="#E69238"/>
<path d="M57.8287 8.57027C56.8663 9.41004 56.7671 10.8709 57.607 11.8331L61.59 16.397C63.1357 18.1682 64.0098 20.4266 64.0588 22.7771L64.2334 31.1565C64.2602 32.4334 65.3168 33.447 66.5936 33.4203C67.8705 33.3937 68.8843 32.337 68.8574 31.0601L68.6826 22.6807C68.6111 19.2454 67.334 15.9446 65.0745 13.3558L61.0914 8.79196C60.2515 7.82974 58.791 7.73046 57.8287 8.57027Z" fill="#E69238"/>
</svg>
