<svg width="23" height="23" viewBox="0 0 23 23" fill="none" xmlns="http://www.w3.org/2000/svg">
<path d="M20.9983 4.3036C20.9946 4.27692 20.9908 4.25021 20.9796 4.22353C20.9758 4.21352 20.9721 4.20017 20.9683 4.19016C20.9496 4.15347 20.9233 4.1201 20.8933 4.09008C20.8595 4.0634 20.822 4.04003 20.7808 4.02336C20.7695 4.02002 20.7545 4.01335 20.7433 4.01335C20.7133 4.00669 20.6832 4 20.6532 4C20.6382 4 20.6269 4 20.6119 4C20.5782 4 20.5406 4.00666 20.5069 4.01667C20.4994 4.02002 20.4919 4.02002 20.4844 4.02333H20.4806L3.22636 10.6889C3.03502 10.7623 2.94874 10.9592 3.03126 11.1292C3.06502 11.1993 3.12506 11.256 3.20008 11.2894L9.473 14.2418L12.797 19.8198C12.8608 19.9299 12.9884 19.9967 13.1272 20H13.1422C13.2848 19.9967 13.4124 19.9166 13.4724 19.7999L20.9721 4.46038V4.45704C20.9758 4.45038 20.9758 4.44368 20.9796 4.43702C20.9908 4.40699 20.9983 4.37697 20.9983 4.3436C20.9983 4.33028 21.0021 4.31692 20.9983 4.3036ZM4.24306 11.0192L18.9761 5.32445L9.68682 13.5813L4.24306 11.0192ZM13.1009 18.8957L10.2196 14.0551L19.5051 5.79484L13.1009 18.8957Z" fill="white"/>
</svg>
