<svg width="80" height="80" viewBox="0 0 80 80" fill="none" xmlns="http://www.w3.org/2000/svg">
<path d="M64.3906 26.5565V14H16.9844V26.5565C14.0228 26.6741 11.2324 27.6681 9.18864 29.3333C7.14485 30.9985 6.00352 33.208 6 35.5063V57.0125H15.8281V53.4281H10.625V35.5063C10.6271 34.0808 11.3586 32.7142 12.6592 31.7062C13.9598 30.6983 15.7232 30.1313 17.5625 30.1297H63.8125C65.6518 30.1313 67.4152 30.6983 68.7158 31.7062C70.0164 32.7142 70.7479 34.0808 70.75 35.5063V53.4281H64.3906V57.0125H75.375V35.5063C75.3715 33.208 74.2301 30.9985 72.1864 29.3333C70.1426 27.6681 67.3522 26.6741 64.3906 26.5565ZM59.7656 26.5453H21.6094V17.5844H59.7656V26.5453Z" fill="#356DB8"/>
<path d="M65.5469 34.6094H60.9219V38.1937H65.5469V34.6094Z" fill="#356DB8"/>
<path d="M20.4531 41.7773H14.6719V45.3617H20.4531V67.7641H59.7656V45.3617H65.5469V41.7773H20.4531ZM55.1406 64.1797H25.0781V45.3617H55.1406V64.1797Z" fill="#356DB8"/>
</svg>
