<svg width="22" height="21" viewBox="0 0 22 21" fill="none" xmlns="http://www.w3.org/2000/svg">
<g clip-path="url(#clip0_435_4160)">
<path d="M16.0482 12.5189L16.04 12.5845C14.0242 11.6255 13.8134 11.4978 13.553 11.8705C13.3725 12.1286 12.8463 12.714 12.6877 12.8873C12.5273 13.0579 12.3678 13.071 12.0955 12.9529C11.8205 12.8216 10.9378 12.546 9.89279 11.6535C9.07879 10.9579 8.53246 10.1048 8.37113 9.84227C8.10254 9.39952 8.66446 9.33652 9.17596 8.41252C9.26763 8.22877 9.22088 8.0844 9.15304 7.95402C9.08429 7.82277 8.53704 6.53652 8.30788 6.02377C8.08788 5.51277 7.86146 5.57752 7.69188 5.57752C7.16388 5.53377 6.77796 5.54077 6.43788 5.87852C4.95838 7.43077 5.33146 9.03202 6.59738 10.7348C9.08521 13.8428 10.4107 14.415 12.8344 15.2095C13.4889 15.4081 14.0856 15.3801 14.5577 15.3154C15.0839 15.2358 16.1775 14.6845 16.4057 14.0676C16.6395 13.4508 16.6395 12.9389 16.5707 12.8208C16.5029 12.7026 16.3232 12.637 16.0482 12.5189Z" fill="#356DB8"/>
<path d="M18.81 3.0163C11.7617 -3.48757 0.0971666 1.22955 0.0925833 10.4048C0.0925833 12.2388 0.595833 14.0273 1.55467 15.6067L0 20.9984L5.80708 19.5529C13.0533 23.2892 21.9963 18.3279 22 10.41C22 7.63105 20.8633 5.01567 18.7962 3.05042L18.81 3.0163ZM20.1685 10.3812C20.163 17.06 12.4822 21.2312 6.4075 17.8222L6.0775 17.6349L2.64 18.488L3.56125 15.2987L3.34217 14.9705C-0.438167 9.22617 3.905 1.71867 11.066 1.71867C13.4988 1.71867 15.7822 2.6243 17.5019 4.26492C19.2207 5.89155 20.1685 8.07117 20.1685 10.3812Z" fill="#356DB8"/>
</g>
<defs>
<clipPath id="clip0_435_4160">
<rect width="22" height="21" fill="white"/>
</clipPath>
</defs>
</svg>
