<svg width="80" height="80" viewBox="0 0 80 80" fill="none" xmlns="http://www.w3.org/2000/svg">
<path d="M74.5673 73.859L66.041 65.3327L74.1722 61.2677L52.0513 53.1177L60.2013 75.2399L64.2675 67.1074L72.7926 75.6325C73.0397 75.8771 73.3595 76 73.6806 76C74.0017 76 74.3228 75.8771 74.5673 75.6325C75.0577 75.1421 75.0577 74.3494 74.5673 73.859ZM56.2856 57.3507L67.8647 61.6176L62.9895 64.0546L60.5525 68.9311L56.2856 57.3507Z" fill="#E69238"/>
<path d="M60.4408 28.3389H49.1527H46.6442H37.8645H35.3561H26.5764H24.0679H12.7798V39.627V42.1355V50.9151V53.4236V64.7118H24.0679H26.5764H37.8645V53.4236H49.1527V42.1355H60.4408V28.3389ZM37.8645 30.8473H46.6442V39.627H37.8645V30.8473ZM26.5764 30.8473H35.3561V39.627H26.5764V30.8473ZM35.3561 50.9151H26.5764V42.1355H35.3561V50.9151ZM15.2883 30.8473H24.0679V39.627H15.2883V30.8473ZM15.2883 42.1355H24.0679V50.9151H15.2883V42.1355ZM24.0679 62.2033H15.2883V53.4236H24.0679V62.2033ZM35.3561 62.2033H26.5764V53.4236H35.3561V62.2033ZM46.6442 50.9151H37.8645V42.1355H46.6442V50.9151ZM57.9323 39.627H49.1527V30.8473H57.9323V39.627Z" fill="#E69238"/>
<path d="M45.3898 70.983H6.50847V22.0678H66.7119V47.1525C66.7119 47.8461 67.2725 48.4068 67.9661 48.4068C68.6597 48.4068 69.2203 47.8461 69.2203 47.1525V20.8136V8.27119C69.2203 7.57759 68.6597 7.01695 67.9661 7.01695H61.6949V3.25424C61.6949 2.56064 61.1343 2 60.4407 2H51.661C50.9674 2 50.4068 2.56064 50.4068 3.25424V7.01695H22.8136V3.25424C22.8136 2.56064 22.2529 2 21.5593 2H12.7797C12.0861 2 11.5254 2.56064 11.5254 3.25424V7.01695H5.25424C4.56064 7.01695 4 7.57759 4 8.27119V20.8136V72.2373C4 72.9309 4.56064 73.4915 5.25424 73.4915H45.3898C46.0834 73.4915 46.6441 72.9309 46.6441 72.2373C46.6441 71.5437 46.0822 70.983 45.3898 70.983ZM52.9153 4.50847H59.1864V8.27119V12.0339H52.9153V8.27119V4.50847ZM14.0339 4.50847H20.3051V8.27119V12.0339H14.0339V8.27119V4.50847ZM6.50847 9.52542H11.5254V13.2881C11.5254 13.9817 12.0861 14.5424 12.7797 14.5424H21.5593C22.2529 14.5424 22.8136 13.9817 22.8136 13.2881V9.52542H50.4068V13.2881C50.4068 13.9817 50.9674 14.5424 51.661 14.5424H60.4407C61.1343 14.5424 61.6949 13.9817 61.6949 13.2881V9.52542H66.7119V19.5593H6.50847V9.52542Z" fill="#E69238"/>
</svg>
