<svg width="80" height="80" viewBox="0 0 80 80" fill="none" xmlns="http://www.w3.org/2000/svg">
<path d="M74.0001 40.7197C74.0001 25.8719 63.5109 12.923 48.4728 9.22972C47.0346 8.87086 45.5652 9.7082 45.2057 11.0838C44.8305 12.4595 45.7059 13.865 47.1441 14.2089C59.7905 17.3041 68.6227 28.2194 68.6227 40.7197C68.6227 51.7397 61.7601 61.5037 51.4898 65.7951L53.9753 60.2627C54.5537 58.9618 53.9284 57.4516 52.5684 56.8834C51.2084 56.3302 49.6296 56.9283 49.0356 58.2291L44.1896 69.0248C43.6112 70.3257 44.2365 71.8359 45.5965 72.4041L56.8829 77.0394C58.5712 77.6076 59.9781 76.6656 60.4158 75.6937C60.9942 74.3928 60.3689 72.8826 59.0089 72.3144L54.1004 70.2958C66.059 65.1222 74.0001 53.6387 74.0001 40.7197Z" fill="#356DB8"/>
<path d="M32.8561 67.2308C20.2096 64.1207 11.3775 53.2203 11.3775 40.72C11.3775 29.8495 18.0524 20.2052 28.0883 15.8241L25.7591 20.9976C25.1807 22.2985 25.7747 23.8685 27.166 24.3769C28.7917 24.9601 30.1673 24.2573 30.6988 23.0312L35.5448 12.2205C36.0138 11.1738 35.9981 9.60382 34.1379 8.84125L22.8515 4.20597C21.4915 3.65272 19.9126 4.25082 19.3186 5.55169C18.7402 6.85256 19.3655 8.36277 20.7255 8.93096L25.9779 11.0841C13.9724 16.2726 6 27.7711 6 40.72C6 55.5679 16.5048 68.5018 31.5273 72.21C33.3407 72.6586 34.4818 71.5222 34.7945 70.3559C35.154 68.9803 34.2942 67.5897 32.8561 67.2308Z" fill="#356DB8"/>
<path d="M46.331 50.4091C47.7066 49.0335 48.3944 47.299 48.3944 45.2356C48.3944 44.2936 48.2225 43.4263 47.8942 42.6189C47.5659 41.8114 47.097 41.1236 46.4873 40.5255C45.8777 39.9424 45.0804 39.4489 44.1112 39.0303C43.5954 38.8209 42.5636 38.5219 40.9848 38.1481V29.5653C42.0009 29.7597 42.7981 30.1784 43.3921 30.8064C43.9705 31.4344 44.3613 32.3315 44.5489 33.4978L47.7691 33.0343C47.4878 31.1503 46.6749 29.655 45.3149 28.5785C44.2519 27.7262 42.8137 27.2178 41.0004 27.0533V25.6328H39.1558V27.0533C37.0924 27.2477 35.5292 27.8009 34.4818 28.6831C32.9029 29.9989 32.1213 31.7185 32.1213 33.8417C32.1213 35.0379 32.3871 36.0996 32.9342 37.0416C33.4657 37.9836 34.2317 38.7163 35.2321 39.2396C36.5765 39.9573 37.8896 40.4358 39.1715 40.6601V50.1549C37.9521 50.0353 36.8892 49.4372 36.0138 48.3756C35.4041 47.628 34.9664 46.4467 34.7319 44.8468L31.5898 45.415C31.6993 46.9551 32.1213 48.2709 32.8248 49.3475C33.5282 50.4241 34.3724 51.2016 35.3572 51.6801C36.3264 52.1586 37.6082 52.4875 39.1558 52.6819V55.6575H41.0004V52.6371C43.1889 52.5324 44.971 51.7848 46.331 50.4091ZM39.1715 37.7743C37.7489 37.3705 36.7485 36.8173 36.1544 36.1295C35.5604 35.4417 35.2634 34.5894 35.2634 33.5726C35.2634 32.5409 35.6073 31.6587 36.3108 30.9111C37.0142 30.1634 37.9678 29.6999 39.1715 29.5205V37.7743ZM44.0018 48.6298C43.2046 49.497 42.2041 49.9905 41.0004 50.14V41.0638C42.6731 41.5872 43.7986 42.1703 44.3613 42.8282C44.9241 43.4861 45.2055 44.3534 45.2055 45.4449C45.1898 46.7009 44.799 47.7775 44.0018 48.6298Z" fill="#356DB8"/>
</svg>
