<svg width="80" height="80" viewBox="0 0 80 80" fill="none" xmlns="http://www.w3.org/2000/svg">
<path d="M63.9339 69.0639L44.5668 54.5246H17.9256C9.14523 54.5246 2 47.8449 2 39.6363V24.8884C2 16.6799 9.14523 10 17.9256 10H60.0744C68.8548 10 76 16.6799 76 24.8884V39.6363C76 46.5433 70.9392 52.444 63.9339 54.0763V69.0639ZM17.9256 14.2315C11.6949 14.2315 6.625 19.0125 6.625 24.8885V39.6364C6.625 45.5124 11.6949 50.2934 17.9256 50.2934H46.2198L59.3089 60.1177V50.44L61.3504 50.2189C67.0662 49.6032 71.375 45.0537 71.375 39.6364V24.8884C71.375 19.0124 66.3051 14.2314 60.0744 14.2314H17.9256V14.2315Z" fill="#356DB8"/>
<path d="M15.1815 34.7685C16.0058 35.2272 17.7154 35.7665 19.041 35.7665C20.396 35.7665 20.9561 35.3347 20.9561 34.6611C20.9561 33.9855 20.5135 33.6631 18.8356 33.1508C15.8592 32.2335 14.7098 30.7521 14.739 29.188C14.739 26.7356 17.038 24.8761 20.6017 24.8761C22.2818 24.8761 23.7859 25.2252 24.6688 25.6302L23.8738 28.4607C23.2256 28.1363 21.9882 27.7045 20.7506 27.7045C19.6597 27.7045 19.041 28.1095 19.041 28.7831C19.041 29.4029 19.601 29.7273 21.3693 30.2934C24.1087 31.155 25.2581 32.4235 25.2875 34.3637C25.2875 36.8161 23.1669 38.6218 19.041 38.6218C17.1554 38.6218 15.4751 38.2458 14.3867 37.7066L15.1815 34.7685Z" fill="#356DB8"/>
<path d="M27.9949 29.3761C27.9949 27.7335 27.9362 26.3306 27.8774 25.1715H31.6489L31.8544 26.9504H31.9425C32.5612 26.1157 33.8281 24.8761 36.3032 24.8761C38.1595 24.8761 39.632 25.7377 40.2507 27.1116H40.3094C40.8401 26.4381 41.4883 25.8988 42.1658 25.5229C42.963 25.0911 43.8459 24.8762 44.9074 24.8762C47.6761 24.8762 49.7695 26.6551 49.7695 30.5891V38.3535H45.4088V31.1839C45.4088 29.2686 44.729 28.1632 43.286 28.1632C42.2562 28.1632 41.5178 28.8099 41.2242 29.593C41.1067 29.8884 41.0481 30.3203 41.0481 30.6446V38.3532H36.6874V30.9669C36.6874 29.2954 36.0392 28.1632 34.6232 28.1632C33.4761 28.1632 32.7962 28.9732 32.532 29.6467C32.3852 29.9691 32.3559 30.3471 32.3559 30.6715V38.3534H27.9952V29.3761H27.9949Z" fill="#356DB8"/>
<path d="M53.2994 34.7685C54.1236 35.2272 55.8332 35.7665 57.1588 35.7665C58.5138 35.7665 59.0739 35.3347 59.0739 34.6611C59.0739 33.9855 58.6313 33.6631 56.9533 33.1508C53.9768 32.2335 52.8274 30.7521 52.8567 29.188C52.8567 26.7356 55.1557 24.8761 58.7193 24.8761C60.3994 24.8761 61.9013 25.2252 62.7865 25.6302L61.9915 28.4607C61.3433 28.1363 60.1059 27.7045 58.8682 27.7045C57.7774 27.7045 57.1587 28.1095 57.1587 28.7831C57.1587 29.4029 57.7187 29.7273 59.487 30.2934C62.2263 31.155 63.3757 32.4235 63.4052 34.3637C63.4052 36.8161 61.2847 38.6218 57.1587 38.6218C55.2731 38.6218 53.5928 38.2458 52.5044 37.7066L53.2994 34.7685Z" fill="#356DB8"/>
</svg>
