<svg width="80" height="80" viewBox="0 0 80 80" fill="none" xmlns="http://www.w3.org/2000/svg">
<path d="M45.3969 18.6929C50.6957 18.6929 55.0009 14.873 55.0009 10.1716C55.0009 5.47016 50.6957 1.65027 45.3969 1.65027C40.0982 1.65027 35.793 5.47016 35.793 10.1716C35.793 14.873 40.0982 18.6929 45.3969 18.6929ZM45.3969 5.3619C48.3775 5.3619 50.8177 7.52702 50.8177 10.1716C50.8177 12.8161 48.3775 14.9812 45.3969 14.9812C42.4164 14.9812 39.9762 12.8161 39.9762 10.1716C39.9762 7.52702 42.399 5.3619 45.3969 5.3619Z" fill="#356DB8"/>
<path d="M29.971 43.0969C31.1214 43.1897 32.1324 42.4319 32.2369 41.4112C33.3699 30.5237 37.7971 25.0027 45.3966 25.0027C52.9961 25.0027 57.4233 30.5237 58.5563 41.4112C58.6609 42.37 59.5672 43.0969 60.6305 43.0969C60.7002 43.0969 60.7525 43.0969 60.8222 43.0814C61.9726 42.9886 62.8266 42.0917 62.7221 41.071C62.1643 35.6272 60.7525 31.2197 58.5389 27.9875C55.5235 23.549 51.0962 21.3065 45.3966 21.3065C39.697 21.3065 35.2698 23.549 32.2544 27.9875C30.0408 31.2351 28.6464 35.6272 28.0712 41.071C27.9666 42.1071 28.8207 43.0041 29.971 43.0969Z" fill="#356DB8"/>
<path d="M23.3827 52.701H67.4109C72.3437 52.701 76.3526 49.144 76.3526 44.7674V28.3279C76.3526 27.3072 75.4113 26.4721 74.2609 26.4721C73.1106 26.4721 72.1693 27.3072 72.1693 28.3279V44.7674C72.1693 47.0871 70.0429 48.9894 67.4109 48.9894H23.3827C20.7682 48.9894 18.6243 47.1026 18.6243 44.7674V35.0862V24.2451V22.8378V12.6308C18.6243 12.569 18.6243 12.4916 18.6069 12.4298C18.6069 12.4143 18.6069 12.3988 18.6069 12.3834C18.6069 12.337 18.5894 12.2906 18.5894 12.2597C18.5894 12.2287 18.572 12.1823 18.5546 12.1514C18.5546 12.1359 18.5371 12.105 18.5371 12.0895C18.5197 12.0432 18.5023 12.0122 18.4849 11.9658C18.4849 11.9504 18.4674 11.9349 18.4674 11.9194C18.45 11.8885 18.4326 11.8421 18.4151 11.8112C18.3977 11.7957 18.3977 11.7802 18.3803 11.7493C18.3628 11.7184 18.3454 11.6875 18.328 11.6565C18.3106 11.6411 18.2931 11.6101 18.2757 11.5947C18.2583 11.5792 18.2408 11.5483 18.2234 11.5328C18.206 11.5019 18.1711 11.4709 18.1537 11.4555C18.1363 11.44 18.1188 11.4245 18.1014 11.4091C18.0665 11.3781 18.0491 11.3472 18.0142 11.3163C17.9968 11.3008 17.9794 11.2854 17.962 11.2854C17.9271 11.2544 17.8922 11.2235 17.8574 11.208C17.8399 11.1926 17.8225 11.1771 17.8051 11.1771C17.7702 11.1462 17.7354 11.1307 17.7005 11.1152C17.6656 11.0843 17.6133 11.0688 17.5785 11.0534C17.5611 11.0379 17.5436 11.0379 17.5262 11.0225C17.4565 10.9915 17.3868 10.9606 17.3345 10.9297L5.25546 6.39838C4.19223 5.99628 2.97212 6.44477 2.51894 7.38815C2.06576 8.33152 2.57123 9.41408 3.63446 9.81617L14.4585 13.868V22.8533V24.2606V35.1017V44.7828V57.0312C14.4585 61.114 17.9619 64.4854 22.4415 64.9184C21.5874 66.1247 21.0819 67.563 21.0819 69.094C21.0819 73.4088 25.0385 76.9349 29.919 76.9349C34.7819 76.9349 38.756 73.4243 38.756 69.094C38.756 67.5784 38.2679 66.1711 37.4313 64.9648H57.807C56.9704 66.1711 56.4823 67.5784 56.4823 69.094C56.4823 73.4088 60.4389 76.9349 65.3193 76.9349C70.1823 76.9349 74.1564 73.4243 74.1564 69.094C74.1564 64.7638 70.1475 61.2377 65.2671 61.2377H23.3827C20.7682 61.2377 18.6243 59.351 18.6243 57.0158V51.4792C20.0013 52.2525 21.6397 52.701 23.3827 52.701ZM34.5379 69.0786C34.5379 71.3519 32.4463 73.2078 29.8841 73.2078C27.3219 73.2078 25.2303 71.3519 25.2303 69.0786C25.2303 66.8052 27.3219 64.9494 29.8841 64.9494C32.4463 64.9494 34.5379 66.8052 34.5379 69.0786ZM69.9209 69.0786C69.9209 71.3519 67.8293 73.2078 65.2671 73.2078C62.7048 73.2078 60.6132 71.3519 60.6132 69.0786C60.6132 66.8052 62.7048 64.9494 65.2671 64.9494C67.8293 64.9494 69.9209 66.8052 69.9209 69.0786Z" fill="#356DB8"/>
</svg>
