<svg width="80" height="80" viewBox="0 0 80 80" fill="none" xmlns="http://www.w3.org/2000/svg">
<path d="M67.2141 26.7438L51.9173 8.48614C51.6565 8.17487 51.3028 8 50.9337 8H23.446C18.2375 8 14 13.0576 14 19.2743V60.726C14 66.9426 18.2375 72.0003 23.446 72.0003H58.1758C63.3844 72.0003 67.6218 66.9426 67.6218 60.726V27.9175C67.6216 27.4773 67.4749 27.0551 67.2141 26.7438ZM52.0928 13.3913L63.1043 26.5341H52.0928V13.3913ZM58.1756 68.6797H23.446C19.7714 68.6797 16.7819 65.1115 16.7819 60.7257V19.2743C16.7819 14.8885 19.7714 11.3203 23.446 11.3203H49.311V28.1942C49.311 29.1109 49.9339 29.8543 50.7019 29.8543H64.8395V60.7257C64.8397 65.1115 61.8502 68.6797 58.1756 68.6797Z" fill="#E69238"/>
<path d="M38.0689 22.4983C36.7088 20.8749 34.9006 19.981 32.9772 19.981C31.0538 19.981 29.2456 20.8749 27.8855 22.4983C26.5254 24.1216 25.7764 26.2798 25.7764 28.5755C25.7764 30.8712 26.5254 33.0294 27.8855 34.6527L42.1508 51.6791C43.9954 53.8804 46.9959 53.8799 48.84 51.6791C50.6842 49.4777 50.6842 45.8965 48.84 43.6952L34.7156 26.8376C34.1725 26.1893 33.2915 26.1893 32.7486 26.8376C32.2055 27.4859 32.2055 28.537 32.7486 29.1853L46.8728 46.0432C47.6322 46.9496 47.6322 48.4249 46.8728 49.3314C46.1133 50.2378 44.8775 50.2378 44.1178 49.3314L29.8525 32.3053C29.0177 31.3089 28.5582 29.9844 28.5582 28.5758C28.5582 27.1669 29.0179 25.8424 29.8525 24.8463C31.5756 22.7896 34.3788 22.7896 36.1019 24.8463L51.0488 42.6861C53.7303 45.8866 53.7303 51.0942 51.0488 54.2946C49.7499 55.8449 48.0229 56.6988 46.1859 56.6988C44.3489 56.6988 42.6219 55.8449 41.323 54.2946L29.8309 40.578C29.2878 39.9297 28.4068 39.9297 27.8639 40.578C27.3208 41.2263 27.3208 42.2774 27.8639 42.9257L39.356 56.6421C41.1804 58.8196 43.606 60.0188 46.1859 60.0188C48.7658 60.0188 51.1916 58.8196 53.0158 56.6421C54.84 54.4645 55.845 51.5695 55.845 48.49C55.845 45.4107 54.8402 42.5154 53.0158 40.3381L38.0689 22.4983Z" fill="#E69238"/>
</svg>
