<svg width="80" height="80" viewBox="0 0 80 80" fill="none" xmlns="http://www.w3.org/2000/svg">
<path d="M71.0255 48.5704L62.285 17.9886C61.0538 13.5303 56.7513 11.0104 52.7058 12.3673C51.7451 12.6954 51.1904 13.8137 51.4881 14.8723C51.7857 15.931 52.8005 16.5423 53.7611 16.2143C55.8853 15.4986 58.1313 16.8256 58.7808 19.1666V19.1815L65.0316 41.0853C63.0427 39.8477 60.7561 39.1469 58.3207 39.1469C51.3122 39.1469 45.5213 44.9919 44.7366 52.477H33.236C32.343 45.1112 26.6063 39.4153 19.6789 39.4153C17.2299 39.4153 14.9298 40.131 12.9409 41.3686L19.273 19.1815V19.1666C19.9224 16.8256 22.1684 15.4986 24.2926 16.2143C25.2533 16.5423 26.2816 15.931 26.5657 14.8723C26.8634 13.8137 26.3086 12.6804 25.348 12.3673C21.3025 11.0104 17.0135 13.5303 15.7687 17.9886L7.05534 48.6003C7.02828 48.6897 7.01475 48.7643 7.00122 48.8537C6.36531 50.5983 6 52.5069 6 54.49C6 62.7952 12.1426 69.5647 19.6789 69.5647C26.6063 69.5647 32.343 63.8688 33.236 56.5029H44.8042C45.8054 63.7346 51.4881 69.2963 58.3207 69.2963C65.857 69.2963 71.9996 62.5268 71.9996 54.2216C72.0132 52.2236 71.6614 50.315 71.0255 48.5704ZM19.6924 65.5388C14.1586 65.5388 9.66665 60.5884 9.66665 54.49C9.66665 48.3915 14.1586 43.4412 19.6924 43.4412C25.2262 43.4412 29.7182 48.3915 29.7182 54.49C29.7182 60.5884 25.2127 65.5388 19.6924 65.5388ZM58.3343 65.2704C52.8005 65.2704 48.3085 60.32 48.3085 54.2216C48.3085 48.1231 52.814 43.1728 58.3343 43.1728C63.8545 43.1728 68.36 48.1231 68.36 54.2216C68.36 60.32 63.8681 65.2704 58.3343 65.2704Z" fill="#356DB8"/>
</svg>
