<svg width="80" height="80" viewBox="0 0 80 80" fill="none" xmlns="http://www.w3.org/2000/svg">
<path d="M45.0239 27.3323C50.0622 27.3323 54.1611 23.2334 54.1611 18.1951C54.1611 13.1568 50.0622 9.05774 45.0239 9.05774C39.9856 9.05774 35.8867 13.1566 35.8867 18.1951C35.8867 23.2334 39.9858 27.3323 45.0239 27.3323ZM45.0239 13.6931C47.5062 13.6931 49.5259 15.7126 49.5259 18.1953C49.5259 20.6776 47.5064 22.6973 45.0239 22.6973C42.5415 22.6973 40.5219 20.6777 40.5219 18.1953C40.5219 15.7126 42.5416 13.6931 45.0239 13.6931Z" fill="#356DB8"/>
<path d="M21.1202 27.176C27.5098 27.176 32.7082 21.9776 32.7082 15.588C32.7082 9.19837 27.5098 4 21.1202 4C14.7306 4 9.53223 9.19837 9.53223 15.588C9.53223 21.9776 14.7306 27.176 21.1202 27.176ZM21.1202 8.6352C24.954 8.6352 28.073 11.7542 28.073 15.588C28.073 19.4218 24.954 22.5408 21.1202 22.5408C17.2864 22.5408 14.1674 19.4218 14.1674 15.588C14.1674 11.7542 17.2864 8.6352 21.1202 8.6352Z" fill="#356DB8"/>
<path d="M57.3609 37.9252C54.6708 33.7423 50.0614 31.1951 45.0241 31.1951C40.5693 31.1951 36.4488 33.1867 33.6946 36.5401C30.3306 33.5972 25.9303 31.8111 21.1202 31.8111C10.5773 31.8112 2 40.3884 2 50.9314V53.249H36.546C36.1928 54.7346 36.0046 56.2835 36.0046 57.8757C36.0046 68.9025 44.9755 77.8735 56.0022 77.8735C67.0289 77.8735 76 68.9025 76 57.8757C76 47.3058 67.7565 38.6262 57.3609 37.9252ZM6.82045 48.6138C7.93321 41.7245 13.9219 36.4464 21.1202 36.4464C28.3185 36.4464 34.3073 41.7245 35.4199 48.6138H6.82045ZM36.8377 40.0571C38.7072 37.4201 41.7326 35.8304 45.0239 35.8304C47.5266 35.8304 49.8749 36.7504 51.679 38.3503C46.7548 39.4397 42.5068 42.3486 39.6803 46.3341C39.1153 44.0537 38.1402 41.9339 36.8377 40.0571ZM56.0024 73.2383C47.5314 73.2383 40.6399 66.3467 40.6399 57.8757C40.6399 49.4049 47.5315 42.5133 56.0024 42.5133C64.4732 42.5133 71.365 49.4049 71.365 57.8757C71.3648 66.3467 64.4732 73.2383 56.0024 73.2383Z" fill="#356DB8"/>
<path d="M59.1401 53.1375L56.0024 47.6844L52.8649 53.1375L46.7095 54.4364L50.9256 59.1056L50.2591 65.3611L56.0026 62.7941L61.7461 65.3609L61.0795 59.1056L65.2957 54.4364L59.1401 53.1375Z" fill="#356DB8"/>
</svg>
