<svg width="40" height="40" viewBox="0 0 40 40" fill="none" xmlns="http://www.w3.org/2000/svg">
<circle r="20" transform="matrix(-1 0 0 1 20 20)" fill="#C2D7F2" style="mix-blend-mode:screen"/>
<path fill-rule="evenodd" clip-rule="evenodd" d="M23.2241 28.7417C26.1504 25.8507 29.0825 22.9652 32 20.0655C29.0793 17.1697 26.15 14.2824 23.2241 11.3918C22.4255 10.6028 21.1308 10.6028 20.3322 11.3918C19.5336 12.1807 19.5336 13.4598 20.3322 14.2488L24.1764 18.0465L7.3782 18.0465C6.24885 18.0465 5.33333 18.951 5.33333 20.0668C5.33333 21.1825 6.24885 22.087 7.3782 22.087L24.1764 22.087L20.3322 25.8847C19.5336 26.6736 19.5336 27.9527 20.3322 28.7417C21.1308 29.5306 22.4255 29.5306 23.2241 28.7417Z" fill="#356DB8"/>
</svg>
