<svg width="255" height="82" viewBox="0 0 255 82" fill="none" xmlns="http://www.w3.org/2000/svg">
<path d="M94.6811 63.4463H93.4512V53.2998H94.6956L98.5013 58.5035L102.148 53.2998H103.32V63.4463H102.09V55.2421L98.5013 60.2864H98.3132L94.6811 55.2856V63.4463ZM111.211 61.8228L111.573 62.736C110.951 63.3013 110.126 63.5912 109.127 63.5912C108.071 63.5912 107.232 63.2868 106.595 62.6635C105.958 62.0403 105.64 61.214 105.64 60.1849C105.64 59.1993 105.944 58.3875 106.537 57.7498C107.13 57.0975 107.955 56.7786 108.997 56.7786C109.851 56.7786 110.574 57.054 111.153 57.6193C111.732 58.1701 112.021 58.8804 112.021 59.7646C112.021 60.0689 111.992 60.3299 111.949 60.5473H106.942C107.044 61.7649 107.926 62.5041 109.214 62.5041C110.068 62.5041 110.734 62.2722 111.211 61.8228ZM108.939 57.8657C107.782 57.8657 107 58.576 106.87 59.6051H110.82C110.762 58.518 110.053 57.8657 108.939 57.8657ZM113.719 65.0407H112.634V62.3591H113.444C113.907 61.7793 114.327 60.3444 114.443 58.6484L114.544 56.9235H118.986V62.3591H120.072V65.0407H118.986V63.4463H113.719V65.0407ZM115.629 58.0107L115.557 59.0978C115.427 60.6198 115.022 61.8953 114.674 62.3591H117.829V58.0107H115.629ZM126.443 58.5905L122.681 63.4463H121.524V56.9235H122.681V61.7793L126.443 56.9235H127.601V63.4463H126.443V58.5905ZM135.68 63.4463H129.892V56.9235H131.05V62.3591H134.523V56.9235H135.68V62.3591H136.766V65.0407H135.68V63.4463ZM143.137 58.5905L139.375 63.4463H138.217V56.9235H139.375V61.7793L143.137 56.9235H144.295V63.4463H143.137V58.5905ZM152.519 63.4463H151.361V60.6922H147.744V63.4463H146.586V56.9235H147.744V59.6051H151.361V56.9235H152.519V63.4463ZM159.817 61.6634L160.367 62.5041C159.831 63.1999 158.891 63.5912 157.863 63.5912C156.821 63.5912 155.982 63.2868 155.331 62.6635C154.694 62.0403 154.376 61.214 154.376 60.1849C154.376 59.2282 154.694 58.4165 155.316 57.7643C155.939 57.112 156.735 56.7786 157.675 56.7786C158.818 56.7786 159.672 57.0685 160.236 57.6338L159.701 58.547C159.209 58.0976 158.587 57.8657 157.834 57.8657C157.227 57.8657 156.706 58.0831 156.257 58.5325C155.823 58.9673 155.606 59.5181 155.606 60.1849C155.606 60.8807 155.823 61.446 156.272 61.8663C156.72 62.2867 157.284 62.5041 157.95 62.5041C158.703 62.5041 159.325 62.2287 159.817 61.6634ZM166.246 56.9235H167.766L164.915 60.04L168.041 63.4463H166.434L163.497 60.1124L166.246 56.9235ZM163.222 63.4463H162.064V56.9235H163.222V63.4463ZM174.383 58.5905L170.621 63.4463H169.464V56.9235H170.621V61.7793L174.383 56.9235H175.541V63.4463H174.383V58.5905ZM182.752 58.5905L178.99 63.4463H177.832V56.9235H178.99V61.7793L182.752 56.9235H183.91V63.4463H182.752V58.5905ZM178.758 53.5897H179.844C179.901 54.3579 180.278 54.7348 180.958 54.7348C181.609 54.7348 181.956 54.3579 182.014 53.5897H183.099C183.099 54.7493 182.231 55.619 180.958 55.619C179.569 55.619 178.758 54.7928 178.758 53.5897ZM195.438 63.4463H189.65V56.9235H190.807V62.3591H194.28V56.9235H195.438V62.3591H196.523V65.0407H195.438V63.4463ZM203.112 61.8228L203.474 62.736C202.851 63.3013 202.027 63.5912 201.028 63.5912C199.972 63.5912 199.132 63.2868 198.496 62.6635C197.859 62.0403 197.541 61.214 197.541 60.1849C197.541 59.1993 197.845 58.3875 198.438 57.7498C199.031 57.0975 199.856 56.7786 200.898 56.7786C201.752 56.7786 202.475 57.054 203.054 57.6193C203.633 58.1701 203.922 58.8804 203.922 59.7646C203.922 60.0689 203.893 60.3299 203.85 60.5473H198.843C198.944 61.7649 199.827 62.5041 201.115 62.5041C201.969 62.5041 202.634 62.2722 203.112 61.8228ZM200.84 57.8657C199.682 57.8657 198.901 58.576 198.771 59.6051H202.721C202.663 58.518 201.954 57.8657 200.84 57.8657ZM211.625 63.4463H210.468V60.6922H206.85V63.4463H205.692V56.9235H206.85V59.6051H210.468V56.9235H211.625V63.4463ZM215.479 58.0831H213.091V56.9235H219.024V58.0831H216.637V63.4463H215.479V58.0831ZM221.634 66.3453H220.476V56.9235H221.634V57.6918C222.097 57.1555 222.965 56.7786 223.848 56.7786C224.759 56.7786 225.497 57.083 226.033 57.7063C226.583 58.3151 226.858 59.1123 226.858 60.0834C226.858 61.0836 226.539 61.9243 225.917 62.5911C225.295 63.2578 224.47 63.5912 223.472 63.5912C222.705 63.5912 222.082 63.4463 221.634 63.1419V66.3453ZM223.515 57.8657C222.748 57.8657 222.111 58.1701 221.634 58.7644V61.9968C222.14 62.3302 222.719 62.5041 223.37 62.5041C224.745 62.5041 225.628 61.5184 225.628 60.1269C225.628 58.7789 224.832 57.8657 223.515 57.8657Z" fill="#73A4D6"/>
<path d="M93.0234 44.7771V30.7388H96.572V39.1956L102.184 30.7388H105.815V44.6926H102.266V35.982L96.4895 44.7771H93.0234Z" fill="#1D1E1C"/>
<path d="M109.548 44.7019V30.6636H113.096V35.8222H118.791V30.6636H122.339V44.6174H118.791V39.0358H113.179V44.6174H109.63L109.548 44.7019Z" fill="#1D1E1C"/>
<path d="M128.446 44.7019V33.8772H124.65V30.6636H135.873V33.8772H132.077V44.6174H128.446V44.7019Z" fill="#1D1E1C"/>
<path d="M137.276 37.6828C137.208 35.7255 137.93 33.8259 139.274 32.433C140.618 31.0401 142.463 30.2775 144.374 30.3254C148.417 30.3254 151.223 33.4544 151.223 38.0211V38.8668H141.073C141.369 40.8352 143.096 42.2364 145.034 42.0804C146.36 42.0698 147.642 41.592 148.665 40.7273L150.233 43.0952C148.651 44.4122 146.659 45.1025 144.621 45.0403C140.412 45.0403 137.276 42.1649 137.276 37.6828ZM144.374 33.2853C142.611 33.2351 141.122 34.6127 140.99 36.4143H147.675C147.654 35.5466 147.291 34.7246 146.669 34.1353C146.047 33.5459 145.219 33.2393 144.374 33.2853Z" fill="#1D1E1C"/>
<path d="M153.781 44.7019V30.6636H162.034C165.087 30.6636 166.738 32.7778 166.738 35.2303C166.738 37.6827 165.17 39.797 162.034 39.797H157.412V44.6174H153.864L153.781 44.7019ZM161.456 36.8371C162.277 36.8371 162.942 36.1555 162.942 35.3148C162.942 34.4741 162.277 33.7926 161.456 33.7926H157.33V36.8371H161.456Z" fill="#1D1E1C"/>
<path d="M168.682 44.6509V30.6655H176.201C178.598 30.6655 180.085 32.1064 180.085 34.2255C180.118 35.687 179.21 36.9969 177.854 37.4463C179.318 37.8939 180.324 39.2702 180.333 40.8367C180.333 43.1253 178.846 44.6509 176.367 44.6509H168.682ZM177.854 34.5645C177.911 33.9938 177.708 33.4283 177.304 33.031C176.901 32.6338 176.342 32.4491 175.788 32.5302H170.748V36.514H175.788C176.326 36.5908 176.87 36.4167 177.27 36.0394C177.67 35.662 177.884 35.121 177.854 34.5645ZM178.102 40.5825C178.128 39.9752 177.898 39.386 177.471 38.9644C177.044 38.5428 176.461 38.3295 175.871 38.3787H170.748V42.7015H175.871C176.453 42.7774 177.038 42.5851 177.469 42.1761C177.899 41.7672 178.131 41.1836 178.102 40.5825Z" fill="#1D1E1C"/>
<path d="M183.06 42.7016L184.134 41.3455C185.542 42.6231 187.378 43.2914 189.257 43.2102C191.653 43.2102 193.306 42.2778 193.306 40.7521C193.306 39.2265 191.405 38.4636 189.009 38.4636H185.952V36.6837H189.009C191.24 36.6837 193.058 35.9208 193.058 34.3104C193.058 32.6999 191.323 32.1066 189.092 32.1066C187.4 32.0192 185.751 32.6652 184.547 33.8866L183.473 32.5304C184.965 31.0258 187.001 30.2272 189.092 30.3266C192.727 30.3266 195.371 31.6828 195.371 34.0561C195.371 36.4294 193.306 37.277 191.736 37.4465C193.306 37.5313 195.702 38.5484 195.702 40.8369C195.702 43.1254 193.388 44.9054 189.422 44.9054C187.095 45.1066 184.791 44.3086 183.06 42.7016Z" fill="#1D1E1C"/>
<path d="M208.427 32.5302H200.991V44.6509H198.842V30.6655H208.427V32.615V32.5302Z" fill="#1D1E1C"/>
<path d="M208.427 43.21C209.667 43.21 210.493 41.6843 210.989 37.5311L211.898 30.6655H221.4V44.6509H219.252V32.5303H213.716L213.055 37.7854C212.394 43.0405 210.989 44.99 208.345 44.99V43.21H208.427Z" fill="#1D1E1C"/>
<path d="M225.118 44.651L228.754 39.1416C226.673 38.9184 225.139 37.0445 225.283 34.9036C225.234 33.7274 225.674 32.5852 226.494 31.7608C227.313 30.9365 228.435 30.5076 229.58 30.5808H236.769V44.5662H234.621V39.1416H230.902L227.597 44.5662H225.118V44.651ZM234.703 37.2768V32.5303H229.828C229.194 32.4814 228.569 32.7127 228.111 33.166C227.654 33.6193 227.406 34.2515 227.432 34.9036C227.378 35.5637 227.616 36.2139 228.08 36.6741C228.545 37.1343 229.187 37.3556 229.828 37.2768H234.703Z" fill="#1D1E1C"/>
<path d="M239.496 42.871C240.735 42.6167 241.561 41.6843 242.057 37.5311L242.966 30.6655H252.469V42.7862H254.039V48.2956H251.89V44.7357H241.561V48.2956H239.413V42.9557L239.496 42.871ZM244.206 37.7854C243.875 40.4129 243.214 41.9386 242.223 42.7015H250.32V32.5303H244.784L244.206 37.7854Z" fill="#1D1E1C"/>
<path d="M51.138 52.2122L46.4383 56.9816C52.176 54.4829 55.6456 48.4876 55.0011 42.1851C54.3567 35.8826 49.7482 30.7379 43.6272 29.488C37.5062 28.2381 31.2956 31.1735 28.2994 36.7326L32.0921 32.8836L32.6692 33.4693L27.3924 38.8244C27.1273 39.6422 26.9342 40.4822 26.8153 41.3346L33.6586 34.3897L34.2358 34.9754L26.6504 42.6734C26.6081 43.3142 26.6081 43.9571 26.6504 44.5979L35.1427 35.9795L35.7199 36.5652L26.7328 45.6857C26.8135 46.2214 26.9236 46.7522 27.0626 47.2754L36.6268 37.5693L37.204 38.155L27.31 48.1959L27.8871 49.5346L38.2758 39.1591L38.853 39.7448L28.3818 50.3714L29.1239 51.5428L39.8423 40.6652L40.4195 41.251L29.6186 52.2122L30.4431 53.2999L41.3264 42.255L41.9036 42.8408L30.9378 53.9693L31.9272 54.8897L42.8105 43.8448L43.3877 44.4306L32.5868 55.3918L33.7411 56.1448L44.2946 45.4346L44.8718 46.0203L34.4831 56.5632L35.7199 57.1489H35.8023L45.8612 46.9408L46.4383 47.5265L36.7093 57.3999L38.1934 57.8183L47.3453 48.5306L47.9224 49.1163L39.1827 57.9857H40.9966L48.9118 49.953L49.489 50.5387L42.2334 57.902L44.542 57.4836L50.3959 51.5428L51.138 52.2122Z" fill="#A0CFEB"/>
<path d="M18.4058 31.2935H11.0678C6.36816 31.2935 2.90527 34.4731 2.90527 39.2425V56.2282H10.9029C12.1185 56.198 13.1322 55.2757 13.2939 54.0527C15.3 42.0964 23.0679 31.9519 33.9888 27.0261C38.8174 24.8726 44.0514 23.816 49.3245 23.9302C50.4398 23.9526 51.5181 23.5244 52.3222 22.7398C53.1263 21.9551 53.5902 20.8784 53.6119 19.7466V5.02002H38.606C32.8345 5.02002 27.8876 9.53839 27.8876 15.3955V19.4119C27.8876 24.767 24.0124 30.0384 18.983 31.2098H18.4883L18.4058 31.2935Z" fill="#4B92DB"/>
<path d="M73.8116 31.1263H72.3276C70.7945 31.0508 69.4333 32.1135 69.112 33.6365C65.6546 52.1335 48.8135 64.8609 30.3606 62.9223C29.7297 62.8261 29.0884 63.0093 28.5995 63.4254C28.1107 63.8415 27.8212 64.4505 27.8047 65.0978V71.959C27.8047 77.6488 32.5043 81.7488 38.1109 81.7488H53.7764V63.508C53.6115 60.3284 56.7446 56.6467 59.4654 56.5631H73.1521C76.3676 56.5631 78.5937 53.8019 78.5937 50.5386V31.1263H73.8116Z" fill="#4B92DB"/>
<path d="M23.0193 24.6143C23.9045 22.3163 22.738 19.7252 20.4139 18.8269C18.0897 17.9285 15.488 19.0631 14.6028 21.3611C13.7176 23.6591 14.8841 26.2502 17.2083 27.1486C19.5324 28.0469 22.1341 26.9123 23.0193 24.6143Z" fill="#A0CFEB"/>
<path d="M65.3284 7.88286C66.2136 5.58488 65.0471 2.99375 62.723 2.09541C60.3988 1.19706 57.7971 2.33169 56.9119 4.62967C56.0267 6.92764 57.1932 9.51878 59.5173 10.4171C61.8415 11.3155 64.4432 10.1808 65.3284 7.88286Z" fill="#A0CFEB"/>
<path d="M65.47 66.5879C66.4372 64.0771 65.1627 61.2461 62.6233 60.2646C60.0839 59.283 57.2413 60.5227 56.2742 63.0335C55.307 65.5442 56.5815 68.3753 59.1209 69.3568C61.6602 70.3383 64.5028 69.0986 65.47 66.5879Z" fill="#A0CFEB"/>
<path d="M8.03645 24.8378C8.74134 23.0079 7.81246 20.9446 5.96174 20.2293C4.11103 19.5139 2.0393 20.4174 1.33442 22.2473C0.629529 24.0771 1.55841 26.1405 3.40912 26.8558C5.25984 27.5711 7.33156 26.6677 8.03645 24.8378Z" fill="#A0CFEB"/>
<path d="M21.3005 70.2059C22.6283 66.7589 20.8785 62.8722 17.3923 61.5247C13.9061 60.1772 10.0035 61.8791 8.6757 65.3261C7.34789 68.7731 9.09763 72.6598 12.5839 74.0073C16.0701 75.3548 19.9727 73.6529 21.3005 70.2059Z" fill="#A0CFEB"/>
</svg>
