<svg width="256" height="87" viewBox="0 0 256 87" fill="none" xmlns="http://www.w3.org/2000/svg">
<path d="M40.6616 80.6197C40.8789 80.5287 41.078 80.3643 41.2952 80.3276C42.1279 80.1999 42.9787 80.1999 43.7934 80.0171C47.2146 79.1946 48.8257 76.6178 48.1559 72.9994C47.8663 71.3912 46.9793 69.2896 46.5811 67.8276C49.7308 67.5351 52.9348 67.2428 56.2657 66.9321C57.044 68.4854 58.2388 70.7881 59.1439 72.4877C60.4111 74.8634 61.9859 77.0015 64.1944 78.5915C65.6064 79.5966 67.1632 80.1632 68.901 80.2909C69.2087 80.3092 69.4983 80.5104 69.806 80.6197C69.4983 80.7298 69.2087 80.9126 68.901 80.9126C60.393 80.931 51.9031 80.931 43.3951 80.931C42.5262 80.931 41.6573 80.931 40.7884 80.931C40.7341 80.8392 40.6979 80.7298 40.6616 80.6197Z" fill="#070E17"/>
<path d="M93.357 16.1821C94.7144 16.1821 96.0719 16.1821 97.4301 16.1821C97.4301 16.2918 97.4301 16.4015 97.4301 16.4015C96.1082 16.6573 96.0181 17.571 96.0545 18.7041C96.1264 20.6412 96.0719 22.5967 96.0719 24.5521C96.0719 26.1054 96.0719 26.1054 97.5383 26.3065C97.5383 27.275 97.5383 28.2436 97.5383 29.2305C97.4664 29.2487 97.3937 29.2853 97.321 29.3036C97.1219 28.9015 96.9228 28.4994 96.7601 28.0791C96.3618 27.1105 95.7463 26.6537 94.6062 26.6902C92.2887 26.7816 89.9721 26.7268 87.6365 26.7085C87.3655 26.7085 87.0755 26.6719 86.7855 26.471C86.8946 26.4161 87.0028 26.3247 87.13 26.3065C87.9265 26.2151 88.1438 25.7399 88.1256 24.9724C88.0892 22.6881 88.0892 20.4036 88.1256 18.1193C88.1438 17.2786 87.9265 16.6938 87.021 16.5476C86.9309 16.5293 86.8401 16.4015 86.5864 16.2004C88.1619 16.2004 89.5375 16.2004 90.9131 16.2004C90.895 16.2918 90.895 16.3466 90.895 16.3466C89.5012 16.6573 89.483 17.6807 89.5012 18.832C89.5557 20.8057 89.5012 22.7794 89.5194 24.7713C89.5194 25.9775 89.7548 26.1968 90.9677 26.1968C91.8724 26.1968 92.7778 26.1785 93.6825 26.1968C94.3889 26.2151 94.6425 25.9044 94.6244 25.2099C94.6062 22.7976 94.6062 20.4036 94.6244 17.9913C94.6244 17.2238 94.4071 16.6938 93.5925 16.5476C93.4652 16.5293 93.3752 16.3832 93.2661 16.3101C93.3207 16.2918 93.3388 16.237 93.357 16.1821Z" fill="#070E17"/>
<path d="M119.515 37.7649C118.139 38.4593 118.139 38.4593 118.139 40.0858C118.139 40.8351 118.139 41.5843 118.139 42.3885C119.895 42.3885 121.542 42.3885 123.316 42.3885C123.316 41.2554 123.443 40.1041 123.262 38.9893C123.189 38.5325 122.447 38.1853 121.994 37.7649C123.334 37.7649 124.728 37.7649 126.122 37.7649C126.14 37.8014 126.14 37.8563 126.158 37.8928C125.995 37.9476 125.832 38.0208 125.669 38.0756C125.072 38.24 124.8 38.5873 124.8 39.2634C124.836 41.5843 124.836 43.887 124.8 46.2079C124.782 47.0851 124.927 47.7248 125.941 47.8161C126.031 47.8161 126.104 47.9623 126.321 48.1451C124.765 48.1451 123.37 48.1451 121.976 48.1451C123.985 47.8161 123.298 46.281 123.37 45.1114C123.406 44.4536 123.37 43.7774 123.37 43.0463C121.632 43.0463 119.967 43.0463 118.211 43.0463C118.211 44.3073 118.157 45.5683 118.248 46.8293C118.266 47.14 118.754 47.4506 119.062 47.7248C119.189 47.8526 119.406 47.8892 119.532 48.1268C118.157 48.1268 116.799 48.1268 115.406 48.1268C115.424 47.9989 115.442 47.8892 115.46 47.8892C116.618 47.7979 116.781 47.0668 116.745 46.0434C116.673 44.1611 116.727 42.2605 116.727 40.3782C116.727 38.6604 116.727 38.6604 115.278 37.7466C116.781 37.7649 118.157 37.7649 119.515 37.7649Z" fill="#070E17"/>
<path d="M191.272 37.7466C192.593 37.7466 193.968 37.7466 195.362 37.7466C195.345 37.8562 195.345 37.9659 195.327 37.9659C193.987 38.4228 193.987 38.4228 193.987 39.8848C193.987 41.7671 193.987 43.6677 193.987 45.55C193.987 47.2862 193.987 47.2862 195.544 48.1451C193.968 48.1451 192.575 48.1451 191.145 48.1451C191.199 48.0354 191.235 47.8892 191.29 47.8892C192.503 47.8344 192.629 47.0668 192.575 46.08C192.521 45.0931 192.556 44.088 192.556 43.0463C190.819 43.0463 189.172 43.0463 187.434 43.0463C187.434 44.3439 187.398 45.6231 187.47 46.8841C187.488 47.1765 187.869 47.4872 188.14 47.7248C188.302 47.8709 188.574 47.8892 188.755 48.1451C187.361 48.1451 185.968 48.1451 184.574 48.1451C184.574 48.0902 184.556 48.0354 184.556 47.9623C184.737 47.9075 184.918 47.8344 185.098 47.7979C185.678 47.6699 185.986 47.3409 185.986 46.7196C185.986 44.2891 185.968 41.8402 185.986 39.4096C185.986 38.7334 185.678 38.3314 185.062 38.1304C184.881 38.0756 184.718 37.9842 184.574 37.7649C185.968 37.7649 187.361 37.7649 188.755 37.7649C188.773 37.8197 188.773 37.8745 188.792 37.9294C188.611 37.9842 188.448 38.0573 188.267 38.0939C187.687 38.24 187.398 38.5507 187.434 39.1903C187.47 40.232 187.452 41.2554 187.452 42.3702C189.135 42.3702 190.801 42.3702 192.556 42.3702C192.556 41.2737 192.684 40.1589 192.503 39.1173C192.412 38.6056 191.724 38.2035 191.272 37.7466Z" fill="#070E17"/>
<path d="M182.981 48.1269C181.351 48.1269 179.994 48.1269 178.618 48.1269C178.618 48.0538 178.599 47.9989 178.599 47.9258C178.817 47.871 179.07 47.871 179.233 47.7613C179.523 47.542 179.958 47.2497 179.976 46.9755C180.048 45.678 180.011 44.3805 180.011 43.0281C178.256 43.0281 176.608 43.0281 174.853 43.0281C174.853 44.3257 174.816 45.6232 174.889 46.9207C174.907 47.1948 175.269 47.4872 175.541 47.6883C175.722 47.8344 176.011 47.8527 176.228 48.1269C174.834 48.1269 173.441 48.1269 172.047 48.1269C172.065 48.0355 172.065 47.9258 172.101 47.9258C173.441 47.4141 173.441 47.4141 173.441 45.879C173.441 43.9967 173.404 42.1144 173.459 40.2138C173.477 39.0991 173.477 38.0939 172.065 37.7832C173.459 37.7832 174.853 37.7832 176.246 37.7832C176.265 37.8198 176.265 37.8746 176.283 37.9111C176.138 37.966 175.993 38.0391 175.848 38.0756C175.178 38.2036 174.871 38.5691 174.889 39.2818C174.907 40.3052 174.889 41.3286 174.889 42.4068C176.645 42.4068 178.292 42.4068 180.048 42.4068C180.048 41.2737 180.175 40.1407 179.994 39.0625C179.921 38.5874 179.215 38.2219 178.817 37.8015C180.066 37.8015 181.423 37.8015 182.8 37.8015C181.17 38.0574 181.514 39.3183 181.514 40.36C181.496 42.1326 181.478 43.8871 181.514 45.6597C181.478 47.4324 181.134 47.1766 182.981 48.1269Z" fill="#070E17"/>
<path d="M109.577 69.7097C108.2 69.7097 106.843 69.7097 105.467 69.7097C105.486 69.5818 105.486 69.4721 105.504 69.4721C106.735 69.3625 106.843 68.5584 106.789 67.5533C106.735 66.5848 106.771 65.6162 106.771 64.6111C105.033 64.6111 103.385 64.6111 101.648 64.6111C101.648 65.8903 101.593 67.1329 101.684 68.3757C101.703 68.6863 102.119 69.0152 102.408 69.2711C102.553 69.3991 102.825 69.4174 103.005 69.6915C101.593 69.6915 100.2 69.6915 98.7878 69.6915C98.8059 69.5818 98.8059 69.4904 98.8423 69.4721C100.2 68.9605 100.2 68.9605 100.2 67.4437C100.2 65.6527 100.2 63.8617 100.2 62.0525C100.2 60.2068 100.2 60.2068 98.625 59.3296C100.2 59.3296 101.593 59.3296 102.987 59.3296C102.969 59.421 102.969 59.5306 102.951 59.5306C101.811 59.6402 101.557 60.3347 101.648 61.3581C101.721 62.1988 101.666 63.0394 101.666 63.9531C103.385 63.9531 105.033 63.9531 106.771 63.9531C106.771 62.8018 106.879 61.6688 106.717 60.5905C106.644 60.1337 105.957 59.7682 105.558 59.3479C106.843 59.3479 108.219 59.3479 109.848 59.3479C108.201 60.0423 108.2 60.0423 108.2 61.7236C108.2 63.3318 108.183 64.94 108.2 66.5665C108.219 67.7543 107.767 69.2163 109.577 69.7097Z" fill="#070E17"/>
<path d="M231.494 69.7094C230.046 69.7094 228.671 69.7094 227.295 69.7094C227.33 69.5633 227.33 69.4719 227.349 69.4719C228.58 69.3622 228.671 68.5765 228.634 67.553C228.561 65.6707 228.616 63.7884 228.417 61.8147C227.82 62.5458 227.222 63.2767 226.643 64.0077C225.738 65.1408 224.851 66.2921 223.946 67.4251C223.023 68.5582 223.113 68.9054 224.507 69.3622C224.597 69.3988 224.688 69.4902 224.977 69.6913C223.385 69.6913 222.009 69.6913 220.597 69.6913C220.651 69.5633 220.669 69.4354 220.723 69.4171C222.027 68.9419 222.027 68.9419 222.027 67.4982C222.027 65.6159 222.009 63.7153 222.027 61.833C222.045 60.7182 222.135 59.6035 220.398 59.5486C220.47 59.4755 220.543 59.3841 220.615 59.311C221.991 59.311 223.366 59.311 224.724 59.311C223.059 59.5486 223.348 60.8279 223.348 61.9244C223.348 63.5691 223.348 65.1956 223.348 67.0962C223.765 66.7307 224.036 66.5479 224.254 66.2921C225.575 64.629 226.879 62.9661 228.2 61.303C228.924 60.3893 228.815 60.0238 227.693 59.64C227.566 59.6035 227.44 59.5486 227.313 59.3293C228.689 59.3293 230.064 59.3293 231.422 59.3293C230.969 59.6583 230.39 59.8776 230.191 60.2979C229.973 60.7365 230.064 61.3578 230.064 61.9061C230.046 63.7701 230.082 65.6159 230.046 67.4799C230.028 68.4485 230.154 69.2526 231.314 69.3988C231.332 69.4171 231.385 69.5267 231.494 69.7094Z" fill="#070E17"/>
<path d="M117.921 20.8788C117.921 19.7275 117.976 18.6128 117.886 17.498C117.868 17.2056 117.451 16.9132 117.161 16.6939C116.98 16.5477 116.709 16.5111 116.509 16.2188C117.94 16.2188 119.351 16.2188 120.782 16.2188C120.782 16.3101 120.782 16.4197 120.763 16.4197C119.497 16.6391 119.316 17.4797 119.37 18.6128C119.442 20.5865 119.424 22.5784 119.37 24.5521C119.333 25.5389 119.569 26.2334 120.655 26.3796C120.71 26.3796 120.763 26.4892 120.927 26.6537C119.388 26.6537 117.958 26.6537 116.509 26.6537C116.546 26.5258 116.546 26.4344 116.582 26.4344C117.94 26.0689 117.94 26.0689 117.94 24.6069C117.94 23.6566 117.94 22.7246 117.921 21.7743C117.921 21.7195 117.886 21.6646 117.849 21.5368C116.238 21.5368 114.591 21.5368 112.853 21.5368C112.853 22.8708 112.763 24.2049 112.907 25.5206C112.944 25.9227 113.632 26.2517 114.048 26.6354C112.744 26.6354 111.369 26.6354 110.011 26.6354C109.993 26.5989 109.993 26.5623 109.975 26.5075C110.12 26.4527 110.264 26.3613 110.41 26.343C111.079 26.2334 111.387 25.8496 111.387 25.1552C111.369 22.7794 111.369 20.4037 111.387 18.0279C111.387 17.2969 111.133 16.8035 110.391 16.6208C110.246 16.5842 110.102 16.4746 109.993 16.237C111.369 16.237 112.726 16.237 114.193 16.237C114.102 16.3649 114.048 16.5111 113.975 16.5294C112.871 16.6573 112.763 17.4066 112.799 18.302C112.835 19.1427 112.799 19.9834 112.799 20.8971C114.555 20.8788 116.202 20.8788 117.921 20.8788Z" fill="#070E17"/>
<path d="M206.513 48.1451C205.119 48.1451 203.707 48.1451 202.295 48.1451C202.332 47.9989 202.332 47.9075 202.35 47.9075C203.508 47.8162 203.707 47.0851 203.617 46.08C203.545 45.2211 203.599 44.3257 203.599 43.485C201.933 43.2291 201.336 43.5033 200.666 44.8922C200.25 45.7694 199.888 46.6648 199.526 47.5786C199.345 48.0537 199.091 48.3096 198.53 48.2731C197.86 48.2182 197.191 48.2548 196.503 48.2548C196.539 48.0537 196.539 47.9441 196.539 47.9441C197.86 47.9075 198.259 46.8842 198.657 45.8973C199.091 44.7825 199.599 43.7226 201.029 43.2109C200.666 43.0099 200.485 42.9002 200.286 42.8088C198.802 42.1875 198.295 41.4017 198.458 39.9762C198.585 38.9163 199.617 37.838 200.902 37.765C202.73 37.6553 204.576 37.7467 206.405 37.765C206.441 37.765 206.459 37.8563 206.549 37.966C206.314 38.0391 206.115 38.1122 205.897 38.167C205.355 38.3132 205.119 38.6604 205.119 39.227C205.137 41.7489 205.119 44.2708 205.119 46.8111C205.119 47.3776 205.318 47.7431 205.934 47.7979C206.151 47.8162 206.35 47.9258 206.549 47.9806C206.549 48.0354 206.531 48.0903 206.513 48.1451ZM203.526 38.2036C202.35 38.1853 201.173 37.9294 200.485 39.1539C199.979 40.031 199.961 40.9813 200.521 41.822C201.245 42.9185 202.368 42.8819 203.544 42.7723C203.526 41.2554 203.526 39.7752 203.526 38.2036Z" fill="#070E17"/>
<path d="M139.246 37.6737C140.187 37.6737 141.129 37.6737 142.07 37.6737C142.848 37.6737 143.645 37.6554 144.423 37.6737C145.799 37.7102 146.777 38.4229 146.994 39.5377C147.211 40.6707 146.596 41.6393 145.292 42.2241C145.111 42.2972 144.93 42.3886 144.604 42.5164C145.219 42.7723 145.726 42.9368 146.179 43.1744C148.008 44.1247 148.134 46.4273 146.378 47.5055C145.781 47.871 145.056 48.1452 144.369 48.1817C142.74 48.273 141.111 48.2183 139.5 48.2C139.372 48.2 139.246 48.1269 139.065 48.0721C140.55 47.1583 140.55 47.1583 140.55 45.2577C140.55 43.485 140.495 41.7306 140.567 39.958C140.603 38.898 140.422 38.0757 139.138 37.9477C139.173 37.8746 139.21 37.7832 139.246 37.6737ZM142.033 42.9551C142.033 44.1795 142.052 45.2943 142.033 46.409C142.015 47.2314 142.432 47.6152 143.21 47.7249C144.622 47.9076 145.69 47.0487 145.817 45.6232C145.962 44.0333 145.184 43.0281 143.717 42.9551C143.21 42.9186 142.703 42.9551 142.033 42.9551ZM142.07 42.352C143.21 42.3155 144.296 42.4982 144.985 41.4017C145.436 40.6707 145.437 39.4097 144.912 38.8066C144.115 37.8929 143.102 38.1122 142.07 38.2401C142.07 39.6108 142.07 40.9083 142.07 42.352Z" fill="#070E17"/>
<path d="M215.474 64.0807C216.017 64.2634 216.307 64.3731 216.614 64.4644C217.81 64.8665 218.588 65.8168 218.588 66.9133C218.606 68.0463 217.81 69.1245 216.632 69.49C216.071 69.6728 215.456 69.7825 214.859 69.8007C213.284 69.8373 211.709 69.819 210.116 69.819C210.134 69.618 210.116 69.5083 210.134 69.5083C211.51 68.9053 211.51 68.9052 211.51 67.2788C211.51 65.3965 211.455 63.4959 211.528 61.6136C211.564 60.5353 211.455 59.6581 210.134 59.585C210.206 59.4205 210.224 59.3291 210.261 59.3291C212.161 59.3109 214.062 59.2378 215.945 59.3291C217.031 59.384 217.863 60.2794 217.972 61.2297C218.099 62.2349 217.574 63.1486 216.56 63.6603C216.289 63.7517 215.981 63.8614 215.474 64.0807ZM213.048 64.3913C213.048 65.8533 213.012 67.1143 213.085 68.3387C213.103 68.6128 213.428 68.9966 213.7 69.1245C214.75 69.618 216.144 69.0514 216.597 67.9915C217.194 66.5843 216.741 65.0857 215.492 64.6837C214.75 64.4462 213.936 64.4827 213.048 64.3913ZM213.085 63.7517C214.497 64.0624 215.474 63.77 215.963 62.9659C216.415 62.1983 216.398 60.8825 215.854 60.2977C215.058 59.4388 214.062 59.7313 213.085 59.713C213.085 61.1567 213.085 62.4542 213.085 63.7517Z" fill="#070E17"/>
<path d="M199.417 59.3295C199.616 59.2929 199.833 59.2381 200.032 59.2381C201.571 59.2381 203.11 59.2198 204.631 59.2381C206.043 59.2564 206.984 59.9326 207.219 61.0474C207.455 62.1987 206.894 63.1124 205.572 63.7338C205.391 63.8252 205.21 63.8983 204.83 64.081C205.355 64.2637 205.698 64.3916 206.025 64.5196C207.11 64.9399 207.817 65.6892 207.853 66.877C207.889 67.9918 207.292 68.869 206.26 69.3076C205.626 69.5635 204.938 69.7645 204.268 69.801C202.802 69.8741 201.318 69.8193 199.851 69.8193C199.707 69.8193 199.544 69.7279 199.272 69.5818C201.281 69.3624 200.793 67.9187 200.811 66.7492C200.829 65.1044 200.811 63.4597 200.829 61.8332C200.847 60.7367 200.974 59.6037 199.182 59.6219C199.272 59.494 199.345 59.4026 199.417 59.3295ZM202.313 64.4464C202.313 65.7806 202.259 66.8953 202.35 68.0284C202.386 68.4121 202.657 68.9238 202.965 69.0883C204.105 69.6731 205.554 68.9787 205.934 67.7542C206.423 66.2009 205.825 64.8486 204.45 64.5744C203.798 64.4464 203.11 64.483 202.313 64.4464ZM202.368 59.7315C202.368 61.1387 202.368 62.4545 202.368 63.752C203.834 64.0261 204.721 63.7886 205.228 62.9844C205.681 62.2535 205.698 61.0291 205.21 60.3895C204.45 59.4209 203.4 59.7132 202.368 59.7315Z" fill="#070E17"/>
<path d="M171.522 59.4026C170.074 60.0971 170.074 60.0971 170.074 61.9063C170.074 63.7886 170.092 65.671 170.056 67.5716C170.038 68.5401 170.11 69.3625 171.341 69.399C171.395 69.399 171.45 69.527 171.594 69.6915C170.074 69.6915 168.662 69.6915 167.232 69.6915C167.25 69.5635 167.25 69.5087 167.268 69.5087C168.752 69.3077 168.698 68.2295 168.626 67.1147C168.59 66.4203 168.626 65.7258 168.626 65.0496C166.96 64.7389 166.363 65.013 165.675 66.4568C165.223 67.3889 164.878 68.3574 164.444 69.2894C164.336 69.527 163.992 69.7646 163.738 69.7829C163.014 69.8559 162.29 69.8011 161.53 69.8011C161.584 69.5635 161.584 69.5087 161.602 69.5087C162.96 69.3443 163.358 68.2295 163.793 67.1878C164.227 66.1278 164.752 65.1593 166.2 64.7024C165.729 64.5013 165.53 64.4283 165.331 64.3369C164.01 63.8252 163.322 62.8566 163.448 61.6687C163.575 60.4443 164.589 59.3661 165.928 59.293C167.739 59.1833 169.549 59.2564 171.341 59.2747C171.395 59.2564 171.45 59.3478 171.522 59.4026ZM168.553 64.3003C168.553 62.7652 168.553 61.285 168.553 59.7316C167.431 59.6767 166.308 59.494 165.585 60.5906C165.006 61.4312 164.987 62.3998 165.494 63.2587C166.164 64.41 167.304 64.41 168.553 64.3003Z" fill="#070E17"/>
<path d="M92.0897 42.5534C92.5061 42.6813 92.7416 42.7544 92.9589 42.8275C94.4617 43.2661 95.1854 44.0702 95.2218 45.3129C95.2581 46.5373 94.5154 47.7617 93.0671 47.9627C91.0223 48.2734 88.9221 48.2186 86.8038 48.31C86.822 48.0175 86.822 47.9262 86.8402 47.908C88.1976 47.3231 88.1976 47.3231 88.1976 45.7515C88.1976 43.9971 88.1976 42.2245 88.1976 40.47C88.1976 39.337 88.3793 38.1308 86.7856 37.8019C86.8765 37.7654 86.9848 37.6922 87.0756 37.6922C88.7957 37.6922 90.515 37.6191 92.217 37.7105C93.8098 37.7836 94.6782 38.807 94.5699 40.2142C94.4973 41.1097 93.9544 41.6214 93.2307 42.0051C92.9407 42.1696 92.6152 42.3158 92.0897 42.5534ZM89.6822 42.9371C89.6822 44.1981 89.7186 45.3494 89.6641 46.4825C89.6277 47.3049 90.0805 47.6155 90.7868 47.7069C92.307 47.8897 93.3026 47.049 93.448 45.4591C93.5926 43.9788 92.6871 42.992 91.1669 42.9371C90.7323 42.9189 90.2796 42.9371 89.6822 42.9371ZM89.7549 38.2222C89.7549 39.6659 89.7549 41 89.7549 42.3706C90.8769 42.334 91.9815 42.4986 92.6152 41.3838C93.0671 40.5797 93.1216 39.6477 92.5788 38.8801C91.8543 37.8567 90.7687 38.1126 89.7549 38.2222Z" fill="#070E17"/>
<path d="M112.998 47.8164C112.998 48.7667 112.998 49.6987 112.998 50.649C112.943 50.6673 112.871 50.6856 112.817 50.7039C112.581 50.2104 112.328 49.7353 112.11 49.2236C111.785 48.5109 111.296 48.1819 110.481 48.2185C108.907 48.2733 107.35 48.3098 105.775 48.2185C104.707 48.1453 104.163 48.657 103.748 49.5159C103.549 49.9181 103.35 50.3384 103.15 50.7404C103.078 50.7221 102.987 50.7039 102.915 50.6673C102.915 49.7353 102.915 48.8033 102.915 47.7799C103.911 47.9626 104.327 47.2133 104.562 46.4458C105.16 44.4904 105.829 42.5167 106.191 40.5064C106.535 38.6241 106.336 38.5327 104.598 37.8018C107.404 37.8018 110.21 37.8018 113.016 37.8018C113.016 37.8383 113.034 37.8749 113.034 37.9297C112.889 37.9845 112.744 38.0576 112.6 38.0758C111.893 38.2038 111.586 38.5876 111.604 39.3369C111.64 41.6212 111.622 43.9056 111.622 46.1899C111.604 47.6154 111.604 47.6154 112.998 47.8164ZM104.779 47.6519C106.318 47.6519 107.676 47.6154 109.015 47.6702C109.848 47.6885 110.156 47.3778 110.138 46.5555C110.101 44.3076 110.119 42.0415 110.119 39.7937C110.119 39.282 110.119 38.7886 110.119 38.2586C109.051 38.2586 108.092 38.2586 107.096 38.2586C107.06 41.5298 106.354 44.6 104.779 47.6519Z" fill="#070E17"/>
<path d="M227.259 48.4742C224.38 48.4742 222.19 46.0801 222.208 42.9551C222.226 39.7753 224.435 37.3447 227.313 37.3813C230.155 37.4178 232.309 39.8118 232.327 42.9551C232.364 46.0619 230.119 48.4742 227.259 48.4742ZM230.771 43.1562C230.499 41.95 230.354 40.8535 229.992 39.8484C229.575 38.7153 228.689 38.0392 227.458 37.9661C226.299 37.893 225.321 38.3316 224.815 39.355C223.62 41.7307 223.529 44.1796 224.851 46.5187C225.973 48.4924 228.761 48.4011 229.811 46.3725C230.282 45.3857 230.463 44.2161 230.771 43.1562Z" fill="#070E17"/>
<path d="M137.852 42.9185C137.87 46.8842 134.503 49.4792 131.01 48.1268C128.91 47.3228 128.059 45.5683 127.806 43.4485C127.479 40.7255 129.2 38.0939 131.679 37.5274C134.829 36.7964 137.708 39.099 137.852 42.4616C137.852 42.6261 137.852 42.7723 137.852 42.9185ZM129.362 42.8819C129.58 43.8871 129.706 44.8922 130.014 45.8242C130.449 47.1034 131.372 47.8893 132.784 47.9076C134.196 47.9076 135.137 47.14 135.626 45.8973C136.386 43.8871 136.368 41.8403 135.553 39.8484C135.047 38.6422 134.123 37.9842 132.802 37.966C131.48 37.966 130.539 38.6604 130.086 39.8666C129.724 40.8169 129.598 41.8585 129.362 42.8819Z" fill="#070E17"/>
<path d="M197.789 64.538C197.771 66.6579 196.991 68.4123 195.073 69.4357C193.227 70.4225 191.416 70.2032 189.714 68.9788C187.633 67.462 187.071 63.4415 188.647 61.1571C190.222 58.8545 193.1 58.2148 195.399 59.6768C196.938 60.6637 197.771 62.3815 197.789 64.538ZM189.281 64.5745C189.552 65.598 189.733 66.7127 190.131 67.7361C190.584 68.8692 191.543 69.4722 192.774 69.454C194.005 69.4357 194.91 68.8143 195.417 67.6995C196.377 65.6345 196.322 63.4963 195.508 61.4129C195.037 60.2068 194.114 59.5123 192.792 59.4941C191.416 59.4758 190.475 60.1886 190.004 61.4312C189.679 62.3998 189.533 63.4415 189.281 64.5745Z" fill="#070E17"/>
<path d="M141.853 64.5559C141.853 67.7906 139.699 70.0932 136.729 70.0384C134.431 70.0018 132.512 68.3205 131.987 65.9083C131.299 62.7284 132.965 59.6948 135.717 59.0734C138.793 58.379 141.654 60.5537 141.834 63.7335C141.853 64.0077 141.853 64.2818 141.853 64.5559ZM140.386 64.5376C140.079 63.3863 139.88 62.2533 139.481 61.1933C139.047 60.0968 138.106 59.5303 136.911 59.512C135.717 59.4937 134.793 60.042 134.286 61.1202C133.273 63.3315 133.236 65.5976 134.268 67.8088C134.775 68.8871 135.68 69.4536 136.875 69.4536C138.051 69.4353 139.011 68.8871 139.463 67.7906C139.88 66.7672 140.079 65.6524 140.386 64.5376Z" fill="#070E17"/>
<path d="M99.5112 16.1821C102.119 16.1821 104.725 16.1821 107.386 16.1821C107.386 16.9314 107.386 17.7172 107.386 18.5213C106.753 17.8635 106.282 16.9679 105.594 16.7669C104.634 16.4746 103.531 16.6938 102.426 16.6938C102.426 18.0827 102.426 19.4716 102.426 20.8605C104.11 21.3356 104.544 21.1164 105.793 19.0147C105.793 20.5864 105.793 21.9022 105.793 23.3093C105.323 22.6698 105.033 21.9387 104.49 21.6464C103.947 21.3356 103.168 21.4819 102.39 21.4088C102.39 22.7976 102.318 24.0404 102.426 25.2648C102.462 25.5937 102.951 25.9593 103.332 26.1785C103.584 26.3247 103.983 26.1968 104.309 26.2333C105.992 26.471 107.187 25.8861 107.73 24.1865C107.766 24.0769 107.838 23.9673 107.911 23.8759C107.947 23.8393 108.019 23.821 108.183 23.7662C108.183 24.7348 108.183 25.6668 108.183 26.6719C105.25 26.6719 102.39 26.6719 99.5112 26.6719C99.5112 26.5623 99.5113 26.471 99.5294 26.4527C100.923 25.9227 100.923 25.9227 100.923 24.351C100.923 22.3408 100.888 20.3305 100.941 18.3203C100.96 17.37 100.797 16.6938 99.7285 16.5659C99.6385 16.5476 99.5476 16.438 99.4575 16.3649C99.4757 16.3101 99.4939 16.2552 99.5112 16.1821Z" fill="#070E17"/>
<path d="M170.292 45.2214C170.237 46.0985 170.201 46.994 170.092 47.8712C170.074 48.0174 169.766 48.2184 169.585 48.2184C166.924 48.2367 164.281 48.2184 161.62 48.2002C161.584 48.2002 161.53 48.1271 161.475 48.0722C161.512 47.9991 161.53 47.8895 161.584 47.8712C162.96 47.4143 162.96 47.4143 162.96 45.934C162.96 44.1431 162.96 42.3339 162.96 40.543C162.96 38.6424 162.96 38.6424 161.294 37.7651C164.118 37.7651 166.761 37.7651 169.459 37.7651C169.459 38.4962 169.459 39.2454 169.459 40.0313C168.752 39.3916 168.155 38.5145 167.359 38.222C166.508 37.9114 165.476 38.149 164.444 38.149C164.444 39.5379 164.444 40.945 164.444 42.4983C165.132 42.4619 165.91 42.6263 166.453 42.3522C166.997 42.078 167.304 41.3653 167.775 40.7622C167.775 42.1146 167.775 43.4304 167.775 44.7462C167.286 43.0283 166.073 42.6811 164.444 43.0649C164.444 44.3259 164.408 45.6599 164.48 46.9757C164.498 47.2316 164.969 47.524 165.277 47.6885C165.494 47.7981 165.82 47.6885 166.073 47.725C168.01 48.054 169.278 47.3046 169.839 45.3858C169.857 45.2945 169.965 45.2396 170.038 45.1482C170.146 45.2031 170.219 45.2031 170.292 45.2214Z" fill="#070E17"/>
<path d="M150.777 47.4324C152.008 46.0252 152.37 44.3622 152.678 42.6992C152.841 41.7123 152.805 40.7072 152.895 39.7021C152.967 38.8066 152.642 38.2402 151.7 38.1122C151.555 38.0939 151.411 37.9843 151.302 37.7832C154.054 37.7832 156.805 37.7832 159.539 37.7832C159.557 37.838 159.557 37.8929 159.574 37.9294C159.412 37.9843 159.249 38.0574 159.068 38.0939C158.398 38.2401 158.127 38.6239 158.145 39.3183C158.181 41.6209 158.181 43.9419 158.145 46.2628C158.127 47.1583 158.361 47.7431 159.321 47.8527C159.412 47.871 159.502 47.9806 159.738 48.1634C158.127 48.1634 156.715 48.1634 155.285 48.1634C157.131 47.9258 156.678 46.5369 156.678 45.4221C156.697 43.0281 156.678 40.6341 156.678 38.1853C155.647 38.1853 154.706 38.1853 153.727 38.1853C153.619 39.5194 153.583 40.8169 153.42 42.0961C153.203 43.8505 152.859 45.6049 151.809 47.0669C151.411 47.6152 150.777 48.072 150.143 48.3278C149.836 48.4558 149.202 48.2 148.912 47.9075C148.731 47.7248 148.786 47.0852 148.985 46.811C149.111 46.6283 149.672 46.6283 149.981 46.7197C150.252 46.7928 150.452 47.1217 150.777 47.4324Z" fill="#070E17"/>
<path d="M145.491 59.311C148.225 59.311 150.958 59.311 153.746 59.311C153.692 59.4024 153.637 59.5486 153.565 59.5669C152.461 59.6218 152.298 60.2979 152.315 61.2482C152.37 63.2036 152.334 65.1408 152.334 67.0962C152.334 68.8323 152.334 68.8323 153.981 69.6546C152.298 69.6546 150.885 69.6546 149.438 69.6546C149.473 69.545 149.473 69.4902 149.473 69.4902C151.121 69.344 150.868 68.1379 150.868 67.0231C150.85 64.5925 150.868 62.1619 150.868 59.6765C149.836 59.6765 148.876 59.6765 147.971 59.6765C147.79 61.3761 147.754 63.0574 147.41 64.6839C147.12 66.0362 146.578 67.3337 145.998 68.5947C145.636 69.3805 144.912 69.9653 143.971 69.8191C143.591 69.7643 143.138 69.4354 142.975 69.1064C142.866 68.8871 143.174 68.1926 143.374 68.1561C143.735 68.1013 144.152 68.3388 144.532 68.5033C144.676 68.5765 144.767 68.7591 145.057 69.0699C145.491 68.2109 145.962 67.4799 146.251 66.6941C146.958 64.8301 147.193 62.8747 147.102 60.8644C147.066 60.2248 146.795 59.841 146.179 59.6765C145.944 59.6218 145.708 59.5304 145.473 59.4755C145.473 59.439 145.473 59.3841 145.491 59.311Z" fill="#070E17"/>
<path d="M238.536 48.1637C237.088 48.1637 235.658 48.1637 234.192 48.1637C234.209 48.0358 234.209 47.9261 234.246 47.9261C235.604 47.4327 235.604 47.4327 235.604 45.9707C235.604 43.9971 235.604 42.0234 235.604 40.0497C235.604 38.4414 235.604 38.4414 234.01 37.8749C234.337 37.7836 234.499 37.7105 234.68 37.7105C236.219 37.6922 237.758 37.6922 239.296 37.7105C240.654 37.7288 241.849 38.5328 242.12 39.5745C242.465 40.9086 241.813 42.3523 240.509 43.0102C240.003 43.266 239.442 43.4305 238.88 43.5219C238.319 43.6132 237.758 43.5402 237.088 43.5402C237.088 44.7829 237.051 45.9159 237.124 47.0672C237.142 47.3048 237.522 47.5789 237.794 47.7434C238.03 47.8896 238.337 47.8896 238.609 47.9627C238.572 48.0175 238.554 48.0906 238.536 48.1637ZM237.124 38.2405C237.124 39.8486 237.124 41.3472 237.124 42.9006C238.246 43.0102 239.314 42.9919 239.984 41.9685C240.582 41.0548 240.545 40.0497 240.021 39.1177C239.387 37.9846 238.264 38.1856 237.124 38.2405Z" fill="#070E17"/>
<path d="M132.367 26.6173C133.852 25.7584 133.852 25.7584 133.852 23.8943C133.852 22.2496 133.852 20.6048 133.852 18.9601C133.852 17.1144 133.852 17.1144 132.422 16.3468C132.44 16.2919 132.458 16.1824 132.476 16.1824C134.34 16.2006 136.223 16.1092 138.07 16.2919C139.463 16.4382 140.278 17.3519 140.386 18.3753C140.532 19.7094 139.916 20.9156 138.685 21.5186C138.178 21.7562 137.599 21.8841 137.056 21.9754C136.53 22.0485 135.988 21.9937 135.336 21.9937C135.336 23.273 135.227 24.4608 135.39 25.6122C135.445 25.996 136.205 26.2883 136.658 26.6356C135.318 26.6173 133.888 26.6173 132.367 26.6173ZM135.39 16.7123C135.39 18.2839 135.39 19.819 135.39 21.3907C136.513 21.4821 137.58 21.5186 138.25 20.4587C138.83 19.5449 138.793 18.5033 138.269 17.5895C137.617 16.493 136.513 16.6209 135.39 16.7123Z" fill="#070E17"/>
<path d="M215.401 42.9915C215.202 42.1509 215.764 42.3337 216.144 42.3154C218.008 42.2423 218.261 41.3834 218.37 39.8483C218.424 39.0808 218.135 38.3132 217.284 38.0208C216.325 37.6736 215.365 37.8197 214.714 38.5873C214.225 39.1538 213.953 39.9397 213.591 40.6341C213.465 40.8717 213.392 41.1275 213.284 41.3651C213.211 41.3468 213.121 41.3285 213.048 41.3103C213.048 40.1224 213.048 38.9345 213.048 37.966C213.881 37.8197 214.659 37.6005 215.438 37.5639C216.379 37.5091 217.357 37.5274 218.28 37.6919C219.275 37.8928 219.891 38.6422 220 39.6838C220.09 40.6706 219.529 41.3468 218.751 41.8585C218.461 42.0595 218.153 42.1874 217.646 42.4616C218.044 42.626 218.243 42.7174 218.442 42.7905C219.366 43.1012 220.162 43.5763 220.362 44.6363C220.561 45.7694 220.199 46.7197 219.275 47.4506C217.7 48.6933 214.895 48.8578 213.229 47.7613C212.559 47.3044 212.161 46.6831 212.234 45.8424C212.288 45.2759 212.65 44.8738 213.193 45.0566C213.501 45.1663 213.845 45.6963 213.826 46.0435C213.772 47.341 214.135 47.8527 215.456 47.9806C217.52 48.1999 218.931 46.9206 218.751 45.0201C218.623 43.7408 217.918 43.0464 216.632 43.0098C216.216 42.9732 215.799 42.9915 215.401 42.9915Z" fill="#070E17"/>
<path d="M97.5748 69.6915C96.1811 69.6915 94.7691 69.6915 93.3753 69.6915C93.3026 69.6184 93.2481 69.5453 93.1762 69.4539C93.3026 69.4174 93.4472 69.3808 93.5744 69.3443C94.7691 68.9971 94.7691 68.9971 94.3527 67.8457C93.7009 66 93.7009 66 91.7643 66C91.7098 66 91.6371 66 91.5833 66C89.646 66 89.646 66 89.1758 67.9371C88.9949 68.7046 89.1577 69.1798 89.9904 69.2894C90.1896 69.3077 90.3887 69.4174 90.5514 69.6915C89.3022 69.6915 88.0712 69.6915 86.6411 69.6915C86.8766 69.4722 86.9493 69.326 87.0575 69.3077C87.8903 69.1615 88.2703 68.595 88.5421 67.8823C89.5922 65.1776 90.6415 62.4546 91.7098 59.7499C91.8006 59.494 92.0353 59.2931 92.1988 59.0737C92.3616 59.2931 92.6152 59.4758 92.7053 59.7134C93.5381 61.8332 94.28 63.9714 95.1855 66.0731C95.7465 67.3889 95.6738 69.1981 97.7558 69.4722C97.7013 69.5453 97.6475 69.6184 97.5748 69.6915ZM90.1532 65.4517C91.2934 65.4517 92.2707 65.4517 93.3753 65.4517C92.8499 64.0811 92.3434 62.7835 91.7643 61.2485C91.1851 62.7653 90.696 64.0445 90.1532 65.4517Z" fill="#070E17"/>
<path d="M122.012 69.6912C120.6 69.6912 119.206 69.6912 117.704 69.6912C117.813 69.545 117.849 69.4354 117.904 69.4171C119.188 68.9237 119.188 68.9237 118.718 67.6445C118.121 66.0362 118.121 66.0362 116.419 66.0362C116.293 66.0362 116.183 66.0362 116.057 66.0362C114.083 66.0362 114.102 66.0362 113.613 67.9368C113.396 68.7775 113.631 69.216 114.5 69.3257C114.681 69.344 114.862 69.4537 115.007 69.7095C113.758 69.7095 112.527 69.7095 111.278 69.7095C111.278 69.6181 111.259 69.5085 111.278 69.5085C112.545 69.1612 112.961 68.1196 113.378 67.0231C114.282 64.5742 115.242 62.1619 116.202 59.7314C116.293 59.4938 116.545 59.3111 116.726 59.0918C116.872 59.2928 117.089 59.4756 117.161 59.6948C118.156 62.2716 119.17 64.8301 120.13 67.4251C120.492 68.412 120.872 69.3257 122.175 69.4537C122.103 69.5268 122.067 69.5998 122.012 69.6912ZM117.813 65.4514C117.27 64.0443 116.763 62.765 116.183 61.2482C115.604 62.765 115.115 64.0625 114.591 65.4514C115.713 65.4514 116.691 65.4514 117.813 65.4514Z" fill="#070E17"/>
<path d="M185.696 62.8927C185.606 62.7465 185.497 62.6004 185.425 62.4359C185.208 61.9059 185.062 61.3211 184.773 60.8459C183.687 59.0002 181.37 58.9819 180.048 60.7545C178.781 62.4542 178.817 66.2553 180.121 67.9367C181.659 69.9286 184.212 69.819 185.588 67.7356C185.732 67.498 185.913 67.297 186.149 66.9498C186.185 68.1011 185.226 69.2524 184.031 69.7093C181.062 70.8241 178.201 69.0879 177.568 65.7985C177.043 63.0937 178.256 60.4256 180.464 59.4022C181.605 58.8722 182.782 58.8357 183.995 59.2012C184.556 59.3657 185.135 59.4205 185.895 59.5484C185.895 60.4439 185.895 61.6318 185.895 62.8014C185.823 62.8196 185.769 62.8562 185.696 62.8927Z" fill="#070E17"/>
<path d="M123.551 69.5271C123.714 69.4541 123.895 69.3078 124.058 69.3261C125.035 69.3261 125.343 68.8144 125.343 67.8824C125.307 65.1777 125.325 62.473 125.325 59.6952C124.474 59.6769 123.623 59.348 122.99 60.0424C122.483 60.609 122.121 61.2852 121.56 62.1075C121.56 61.0475 121.56 60.1886 121.56 59.2749C124.547 59.2749 127.534 59.2749 130.557 59.2749C130.557 60.1704 130.557 61.0293 130.557 61.8699C129.597 60.6272 128.927 59.0373 126.774 59.7683C126.774 60.0241 126.774 60.3713 126.774 60.7186C126.774 63.003 126.774 65.2873 126.774 67.5717C126.774 68.9789 126.792 68.9972 128.149 69.3444C128.257 69.3627 128.348 69.4358 128.421 69.6733C126.827 69.6733 125.216 69.6733 123.623 69.6733C123.57 69.6185 123.57 69.5819 123.551 69.5271Z" fill="#070E17"/>
<path d="M121.994 18.8322C121.994 17.9733 121.994 17.1144 121.994 16.2007C124.927 16.2007 127.896 16.2007 130.937 16.2007C130.937 17.0596 130.937 17.9368 130.937 18.814C130.882 18.8871 130.829 18.9419 130.774 19.015C130.104 17.4068 129.236 16.1093 127.172 16.7671C127.172 17.4982 127.172 18.3023 127.172 19.1246C127.172 20.9156 127.172 22.7065 127.172 24.5157C127.172 25.9594 127.172 25.9594 128.493 26.3432C128.62 26.3798 128.747 26.4529 128.855 26.6539C127.262 26.6539 125.687 26.6539 123.913 26.6539C125.705 25.7767 125.705 25.7767 125.705 23.7299C125.705 21.6831 125.705 19.6546 125.705 17.6078C125.705 17.3154 125.705 17.023 125.705 16.7671C123.642 16.091 122.809 17.4068 122.158 19.0516C122.121 18.9785 122.049 18.9053 121.994 18.8322Z" fill="#070E17"/>
<path d="M249.741 37.7651C250.99 37.7651 252.221 37.7651 253.651 37.7651C251.026 38.953 250.954 41.6394 249.795 43.6314C249.161 44.6914 248.691 45.8609 248.076 46.9209C247.623 47.6885 246.935 48.3098 245.975 48.3281C245.559 48.3463 245.089 48.2001 244.744 47.9991C244.256 47.6885 244.22 47.1402 244.618 46.7382C245.053 46.2995 245.541 46.5006 245.849 46.9392C246.156 47.3412 246.356 47.8163 246.971 47.396C247.659 46.9209 248.166 45.9523 247.913 45.4589C246.845 43.3756 245.831 41.2739 244.673 39.2454C244.328 38.6424 243.623 38.2768 243.062 37.7834C244.383 37.7834 245.776 37.7834 247.369 37.7834C245.867 38.4596 245.867 38.4596 246.664 39.9399C247.261 41.0729 247.804 42.206 248.383 43.339C248.51 43.5949 248.673 43.8325 248.98 44.3625C249.759 42.3887 250.465 40.6709 251.117 38.9348C251.171 38.7703 250.845 38.3865 250.61 38.222C250.374 38.0576 250.03 38.0393 249.741 37.9479C249.723 37.8931 249.723 37.8382 249.741 37.7651Z" fill="#070E17"/>
<path d="M155.574 69.6732C155.647 69.5453 155.647 69.4539 155.683 69.4356C157.203 68.9057 157.203 68.9057 157.203 67.206C157.203 65.2323 157.149 63.2404 157.221 61.2667C157.258 60.2433 156.95 59.7133 155.936 59.6037C155.846 59.6037 155.773 59.5488 155.701 59.5123C155.683 59.494 155.665 59.4575 155.556 59.3296C157.167 59.3296 158.688 59.3296 160.226 59.3296C160.208 59.4027 160.19 59.494 160.172 59.5123C158.67 59.9326 158.67 59.9326 158.67 61.6139C158.67 63.6242 158.67 65.6345 158.67 67.6446C158.67 69.0153 158.67 69.0153 159.973 69.3625C160.081 69.3808 160.172 69.4722 160.244 69.6915C158.706 69.6732 157.167 69.6732 155.574 69.6732Z" fill="#070E17"/>
<path d="M96.7967 37.7651C98.2813 37.7651 99.7652 37.7651 101.268 37.7651C101.25 37.8748 101.232 37.9662 101.213 37.9845C99.7833 38.4048 99.7833 38.4048 99.7833 39.9582C99.7833 41.9867 99.8197 44.0334 99.7652 46.062C99.747 47.0306 99.8742 47.7799 101.033 47.7982C101.087 47.7982 101.141 47.8346 101.195 47.8895C101.232 47.926 101.25 47.9991 101.322 48.1454C99.8015 48.1454 98.335 48.1454 96.6157 48.1454C96.9231 47.9626 97.0685 47.8164 97.1949 47.8164C98.1359 47.7799 98.3896 47.2316 98.3896 46.3727C98.3532 44.1614 98.3532 41.9319 98.3896 39.7206C98.4077 38.8251 98.1359 38.2586 97.2131 38.1124C97.0685 38.0941 96.9231 37.9845 96.7785 37.9296C96.7785 37.8565 96.7785 37.82 96.7967 37.7651Z" fill="#070E17"/>
<path d="M36.3354 20.9338C36.0458 21.2627 35.6295 21.5552 35.4665 21.9389C34.1813 24.936 32.9322 27.9513 31.6107 31.1495C31.3212 30.8022 31.104 30.583 30.9229 30.3271C29.0765 27.6224 28.3886 24.5888 28.4429 21.3541C28.5334 16.7671 30.0178 12.7832 33.6201 9.78606C36.4078 7.48345 39.6843 6.36869 43.178 5.82043C47.7579 5.08944 52.3015 5.54631 56.8632 6.02146C58.7821 6.22249 60.7552 6.05801 62.7102 6.03974C63.0723 6.03974 63.4162 6.00318 63.8868 5.96663C64.3032 12.0888 64.7195 18.1195 65.1178 24.1684C65.0092 24.205 64.8824 24.2416 64.7739 24.2964C64.6471 24.004 64.4661 23.7298 64.3756 23.4375C63.5248 20.6597 62.9274 17.7905 61.8051 15.1224C59.8863 10.5354 56.3926 7.68448 51.4145 6.93521C48.3915 6.47833 45.4046 6.69763 42.5264 7.81241C36.969 9.96884 35.1045 15.3234 36.3716 20.3307C36.4259 20.5683 36.4984 20.8058 36.5707 21.0252C36.4984 20.9886 36.4259 20.9704 36.3354 20.9338Z" fill="#356DB8"/>
<path d="M55.7949 65.4513C52.5909 66.7853 49.3506 67.096 46.056 66.7123C41.5486 55.7838 37.0593 44.9102 32.4794 33.7809C31.7011 35.6632 31.0313 37.2713 30.3615 38.8978C26.9402 47.1947 23.4827 55.4732 20.0976 63.7883C18.8667 66.8219 17.69 69.8921 17.4185 73.2181C17.0745 77.3848 18.9753 79.3768 22.5233 80.071C23.3379 80.2354 24.2068 80.2354 25.0395 80.3456C25.2748 80.3823 25.492 80.5643 25.7273 80.6744C25.5101 80.7654 25.2929 80.9298 25.0757 80.9482C24.1706 80.9849 23.2655 80.9666 22.3604 80.9666C15.8436 80.9666 9.32682 80.9666 2.8101 80.9666C2.62908 80.9666 2.42996 81.0033 2.26704 80.9482C2.10412 80.8939 1.9593 80.7654 1.79639 80.6744C1.9593 80.5643 2.12222 80.3999 2.30324 80.3456C3.73331 79.9984 5.23579 79.8523 6.55724 79.2854C9.90614 77.8417 12.1146 75.1004 14.0153 72.085C16.622 67.9549 18.2693 63.368 20.1157 58.8723C23.0302 51.7999 25.9808 44.7458 28.9134 37.6734C31.0856 32.4467 33.2578 27.2201 35.4301 21.9752C35.5025 21.8108 35.5387 21.6097 35.6473 21.4818C35.8284 21.2808 36.0637 21.0432 36.299 21.0066C36.4438 20.9884 36.6973 21.2991 36.7877 21.5183C38.5437 25.5023 40.2996 29.4863 42.0193 33.4701C46.5448 43.9234 51.0522 54.3766 55.5596 64.8117C55.6139 64.9761 55.6864 65.1406 55.7949 65.4513Z" fill="#070E17"/>
<path d="M37.6024 23.3096C40.9151 27.0559 45.4226 28.7006 49.8576 30.4733C54.0029 32.118 58.2207 33.58 62.0403 35.9558C65.5883 38.1488 68.4304 40.9814 69.5888 45.1481C71.8879 53.3353 68.8286 62.9479 58.5465 66.4749C55.6503 67.4618 52.6453 67.8272 49.5861 67.9917C42.9245 68.3755 37.0413 66.0546 31.4297 62.8017C28.6781 61.1934 26.1076 59.2563 23.4466 57.4837C22.9216 57.1364 22.8312 56.8075 23.0845 56.2044C24.225 53.5362 25.3111 50.8499 26.524 47.9259C26.6326 48.4558 26.6869 48.7482 26.7593 49.0407C28.6057 57.8674 36.1724 65.0677 44.97 66.548C48.156 67.078 51.2876 66.9866 54.3107 65.9266C62.5653 63.021 64.0315 55.1079 61.8411 49.8813C60.755 47.2679 58.8181 45.3491 56.3924 44.1064C53.0436 42.4069 49.5861 40.9083 46.0923 39.5011C44.7528 38.9712 43.9563 38.2584 43.3951 36.9061C41.6392 32.5932 39.7385 28.3351 37.8921 24.0588C37.8015 23.803 37.7111 23.5471 37.6024 23.3096Z" fill="#356DB8"/>
</svg>
