<svg width="40" height="40" viewBox="0 0 40 40" fill="none" xmlns="http://www.w3.org/2000/svg">
<circle cx="20" cy="20" r="20" fill="#C2D7F2" style="mix-blend-mode:screen"/>
<path fill-rule="evenodd" clip-rule="evenodd" d="M16.7759 28.7417C13.8496 25.8507 10.9175 22.9652 8 20.0655C10.9207 17.1697 13.85 14.2824 16.7759 11.3918C17.5745 10.6028 18.8692 10.6028 19.6678 11.3918C20.4664 12.1807 20.4664 13.4598 19.6678 14.2488L15.8236 18.0465L32.6218 18.0465C33.7512 18.0465 34.6667 18.951 34.6667 20.0668C34.6667 21.1825 33.7512 22.087 32.6218 22.087L15.8236 22.087L19.6678 25.8847C20.4664 26.6736 20.4664 27.9527 19.6678 28.7417C18.8692 29.5306 17.5745 29.5306 16.7759 28.7417Z" fill="#356DB8"/>
</svg>
